<svg version="1.1" xmlns="http://www.w3.org/2000/svg" viewBox="0 0 1549.451565628728 1409.8617650122412" width="1549.451565628728" height="1409.8617650122412">
  <!-- svg-source:excalidraw -->
  
  <defs>
    <style class="style-fonts">
      @font-face {
        font-family: "Virgil";
        src: url("https://file%2B.vscode-resource.vscode-cdn.net/Users/sascha-wolf/.vscode/extensions/pomdtr.excalidraw-editor-3.7.4/public//dist/excalidraw-assets/Virgil.woff2");
      }
      @font-face {
        font-family: "Cascadia";
        src: url("https://file%2B.vscode-resource.vscode-cdn.net/Users/sascha-wolf/.vscode/extensions/pomdtr.excalidraw-editor-3.7.4/public//dist/excalidraw-assets/Cascadia.woff2");
      }
      @font-face {
        font-family: "Assistant";
        src: url("https://file%2B.vscode-resource.vscode-cdn.net/Users/sascha-wolf/.vscode/extensions/pomdtr.excalidraw-editor-3.7.4/public//dist/excalidraw-assets/Assistant-Regular.woff2");
      }
    </style>
    
  </defs>
  <rect x="0" y="0" width="1549.451565628728" height="1409.8617650122412" fill="#ffffff"></rect><g stroke-linecap="round" transform="translate(222.59132870344376 38.78798184557871) rotate(0 134.306640625 90.09375)"><path d="M32 0 C89.76 0.58, 150.83 0.3, 236.61 0 M32 0 C100.92 -1.6, 168.23 -1.57, 236.61 0 M236.61 0 C258.35 0.26, 266.82 11.11, 268.61 32 M236.61 0 C255.69 1.9, 268.75 11.97, 268.61 32 M268.61 32 C271.26 65.63, 271.31 95.38, 268.61 148.19 M268.61 32 C268.54 67.21, 268.45 103.5, 268.61 148.19 M268.61 148.19 C269.49 168.7, 256.27 181.57, 236.61 180.19 M268.61 148.19 C268.9 171.8, 256.19 180.36, 236.61 180.19 M236.61 180.19 C167.75 180.96, 102.12 179.39, 32 180.19 M236.61 180.19 C155.55 179.55, 76.48 179.58, 32 180.19 M32 180.19 C9.83 180.79, 1.86 169.35, 0 148.19 M32 180.19 C8.39 181.1, -2.24 171.33, 0 148.19 M0 148.19 C-1.52 105.88, 1.31 64.61, 0 32 M0 148.19 C-0.11 117.19, 1.07 85.67, 0 32 M0 32 C-0.82 9.5, 12.25 -1.26, 32 0 M0 32 C2.25 11.47, 11.03 -1.51, 32 0" stroke="#1e1e1e" stroke-width="2" fill="none"></path></g><g transform="translate(300.19875057844376 105.88173184557871) rotate(0 56.69921875 23)"><text x="56.69921875" y="0" font-family="Helvetica, Segoe UI Emoji" font-size="20px" fill="#1e1e1e" text-anchor="middle" style="white-space: pre;" direction="ltr" dominant-baseline="text-before-edge">Website</text><text x="56.69921875" y="23" font-family="Helvetica, Segoe UI Emoji" font-size="20px" fill="#1e1e1e" text-anchor="middle" style="white-space: pre;" direction="ltr" dominant-baseline="text-before-edge">[Nuxt 2.16.2]</text></g><g stroke-linecap="round" transform="translate(366.4186112024032 397.5705221986058) rotate(0 134.306640625 90.09375)"><path d="M32 0 C101.95 -0.49, 170.48 -1.05, 236.61 0 M32 0 C103.99 1.14, 176.51 0, 236.61 0 M236.61 0 C259.29 -0.53, 267.48 12.64, 268.61 32 M236.61 0 C257.23 -1.68, 269.84 8.65, 268.61 32 M268.61 32 C270.98 78.68, 271.32 122.13, 268.61 148.19 M268.61 32 C269.73 73.84, 268.66 114.97, 268.61 148.19 M268.61 148.19 C266.61 168.41, 258.73 181.03, 236.61 180.19 M268.61 148.19 C268.89 169.05, 256.2 178.81, 236.61 180.19 M236.61 180.19 C172.1 180.15, 108.67 179.93, 32 180.19 M236.61 180.19 C177.07 181.36, 116.79 181.64, 32 180.19 M32 180.19 C10.67 180.63, 0.48 169.06, 0 148.19 M32 180.19 C9.85 182.14, -0.63 169.72, 0 148.19 M0 148.19 C0.17 105.43, -0.04 57.81, 0 32 M0 148.19 C0.99 114.1, 1.1 80.5, 0 32 M0 32 C-0.56 10.72, 11.37 1.85, 32 0 M0 32 C1.08 12.39, 11.88 0.98, 32 0" stroke="#1e1e1e" stroke-width="2" fill="none"></path></g><g transform="translate(462.3658768274032 464.6642721986058) rotate(0 38.359375 23)"><text x="38.359375" y="0" font-family="Helvetica, Segoe UI Emoji" font-size="20px" fill="#1e1e1e" text-anchor="middle" style="white-space: pre;" direction="ltr" dominant-baseline="text-before-edge">Traefik</text><text x="38.359375" y="23" font-family="Helvetica, Segoe UI Emoji" font-size="20px" fill="#1e1e1e" text-anchor="middle" style="white-space: pre;" direction="ltr" dominant-baseline="text-before-edge">[v20.8.0]</text></g><g stroke-linecap="round"><g transform="translate(629.7304946791569 943.6954765922028) rotate(0 44.060593016404425 47.85201411482018)" fill-rule="evenodd"><path d="M1.55 1.71 C1.16 16.42, 0.48 72.72, -0.03 88.4 C-0.54 104.07, -1.97 94.12, -1.5 95.77 C-1.04 97.42, -0.68 96.86, 2.74 98.29 C6.17 99.72, 11.53 103.34, 19.05 104.35 C26.56 105.35, 39.32 104.72, 47.83 104.33 C56.33 103.94, 63.7 103.05, 70.09 101.99 C76.48 100.93, 83.27 99.08, 86.19 97.99 C89.11 96.89, 87.61 97.12, 87.62 95.43 C87.62 93.74, 86.29 102.41, 86.2 87.84 C86.11 73.27, 86.77 23.1, 87.05 8.01 C87.33 -7.08, 88.9 -0.98, 87.88 -2.7 C86.85 -4.42, 84.21 -1.56, 80.89 -2.3 C77.56 -3.05, 73.91 -6.41, 67.93 -7.18 C61.96 -7.94, 52.76 -6.38, 45.04 -6.9 C37.32 -7.41, 28.3 -10.55, 21.61 -10.25 C14.93 -9.95, 8.89 -7.03, 4.93 -5.08 C0.97 -3.12, -1.65 0.64, -2.16 1.49 C-2.66 2.35, 1.86 0.54, 1.9 0.03" stroke="none" stroke-width="0" fill="#228be6" fill-rule="evenodd"></path><path d="M-1.02 -0.25 C-1.01 14.11, -0.64 69.43, -0.52 85.43 C-0.4 101.43, -1.34 93.42, -0.31 95.75 C0.72 98.09, 2.05 97.95, 5.64 99.42 C9.24 100.9, 14.55 103.61, 21.27 104.62 C27.99 105.62, 37.4 105.57, 45.94 105.45 C54.48 105.33, 65.74 104.97, 72.53 103.91 C79.32 102.84, 84.31 100.45, 86.68 99.07 C89.04 97.69, 86.55 97.53, 86.71 95.63 C86.88 93.72, 87.29 102.25, 87.67 87.63 C88.05 73, 88.97 22.43, 88.99 7.89 C89.01 -6.65, 88.88 2.41, 87.8 0.4 C86.72 -1.61, 85.41 -2.83, 82.52 -4.18 C79.63 -5.53, 76.9 -6.7, 70.45 -7.7 C63.99 -8.71, 52.1 -10.04, 43.8 -10.22 C35.5 -10.4, 27.26 -9.96, 20.65 -8.81 C14.04 -7.66, 7.67 -4.91, 4.13 -3.32 C0.59 -1.73, -0.09 0.19, -0.58 0.73 C-1.08 1.27, 0.9 -0.1, 1.18 -0.07 M0.65 -1.42 C1.09 13.14, 2.08 70.23, 1.77 86.64 C1.45 103.04, -1.42 94.76, -1.25 97.02 C-1.07 99.28, -0.79 99.38, 2.81 100.18 C6.4 100.98, 12.96 101.08, 20.3 101.85 C27.63 102.61, 37.99 104.57, 46.8 104.77 C55.62 104.96, 66.68 104.01, 73.21 103.04 C79.75 102.06, 83.54 100.32, 86.01 98.9 C88.49 97.47, 87.72 96.41, 88.08 94.49 C88.44 92.57, 88.49 102.19, 88.18 87.37 C87.86 72.54, 86.46 20.07, 86.19 5.57 C85.92 -8.93, 87.07 2.09, 86.56 0.36 C86.05 -1.36, 85.87 -3.36, 83.12 -4.79 C80.37 -6.23, 77.05 -7.77, 70.04 -8.26 C63.02 -8.74, 49.12 -7.75, 41.04 -7.72 C32.96 -7.69, 27.87 -8.95, 21.54 -8.06 C15.21 -7.17, 6.41 -3.97, 3.07 -2.38 C-0.27 -0.78, 1.95 1.09, 1.51 1.51 C1.07 1.93, 0.92 0.47, 0.41 0.15" stroke="#0a11d3" stroke-width="1" fill="none"></path></g></g><mask></mask><g stroke-linecap="round"><g transform="translate(630.4139500186543 1009.2082608729904) rotate(0 44.15404313987261 4.448651936218255)"><path d="M-0.81 -0.63 C-0.31 0.05, -0.38 2.62, 2 3.81 C4.38 5, 9.35 5.47, 13.46 6.52 C17.57 7.57, 21.31 9.53, 26.66 10.12 C32.02 10.7, 38.18 10.21, 45.58 10.02 C52.99 9.83, 64.38 10.02, 71.11 8.99 C77.84 7.96, 83.31 5.31, 85.98 3.82 C88.64 2.32, 86.81 0.68, 87.12 0.03 M0.97 1.66 C1.37 2.55, -1.17 4.32, 0.88 5.3 C2.93 6.27, 8.85 7.03, 13.27 7.49 C17.69 7.95, 21.75 7.52, 27.41 8.06 C33.07 8.61, 39.7 10.7, 47.23 10.76 C54.75 10.82, 65.94 9.78, 72.56 8.43 C79.19 7.07, 84.22 4.06, 86.98 2.64 C89.74 1.23, 88.71 0.59, 89.13 -0.06" stroke="#0a11d3" stroke-width="1" fill="none"></path></g></g><mask></mask><g stroke-linecap="round"><g transform="translate(629.3202085065927 976.1341063109187) rotate(0 44.15404313987261 4.448651936218255)"><path d="M-0.32 -0.1 C0.38 0.55, 1.15 1.87, 3.42 3.25 C5.7 4.62, 9.77 7.03, 13.31 8.13 C16.85 9.23, 19.1 9.49, 24.67 9.84 C30.23 10.19, 38.86 10.49, 46.7 10.25 C54.54 10.02, 65.49 9.46, 71.72 8.41 C77.96 7.36, 81.42 5.38, 84.1 3.96 C86.78 2.55, 86.94 0.54, 87.81 -0.09 M1.71 -1.19 C2.42 -0.35, 1.16 3.19, 3.05 4.44 C4.94 5.68, 9.49 5.76, 13.04 6.29 C16.6 6.82, 19 6.83, 24.37 7.64 C29.74 8.44, 37.69 11.14, 45.27 11.12 C52.85 11.11, 63.36 8.92, 69.83 7.54 C76.31 6.17, 81.34 4.17, 84.12 2.87 C86.9 1.57, 85.84 0.38, 86.52 -0.24" stroke="#0a11d3" stroke-width="1" fill="none"></path></g></g><mask></mask><g stroke-linecap="round" transform="translate(628.199385820431 935.8934366151061) rotate(0 43.825373054270926 8.863351988406805)"><path d="M46.05 -0.39 C55.06 -0.32, 66.35 1.41, 73.29 2.78 C80.23 4.15, 86.52 5.98, 87.7 7.82 C88.88 9.66, 85.52 12.33, 80.38 13.83 C75.24 15.34, 65.68 16.27, 56.87 16.88 C48.05 17.48, 36.15 18.17, 27.51 17.45 C18.87 16.74, 9.5 14.33, 5.03 12.6 C0.56 10.87, -1.34 8.89, 0.69 7.08 C2.71 5.28, 9.42 2.85, 17.2 1.75 C24.98 0.65, 42.02 0.74, 47.35 0.47 C52.68 0.21, 49.25 0.01, 49.17 0.14 M47.49 0.64 C56.52 0.72, 69.13 1.37, 75.75 2.67 C82.36 3.96, 86.51 6.54, 87.17 8.42 C87.83 10.3, 85.23 12.47, 79.7 13.96 C74.17 15.45, 63.01 16.92, 53.97 17.36 C44.93 17.81, 33.72 17.35, 25.46 16.64 C17.19 15.92, 8.35 14.81, 4.37 13.08 C0.38 11.36, -1.01 8.17, 1.54 6.3 C4.1 4.43, 11.82 2.8, 19.71 1.84 C27.59 0.89, 44.17 0.76, 48.87 0.55 C53.58 0.35, 48.23 0.64, 47.94 0.61" stroke="none" stroke-width="0" fill="#fff"></path><path d="M52.73 0.2 C61.59 0.57, 72.59 2.22, 78.43 3.61 C84.27 5.01, 88.03 6.76, 87.77 8.58 C87.52 10.39, 83.12 12.93, 76.92 14.51 C70.72 16.09, 59.84 17.71, 50.57 18.06 C41.3 18.4, 29.29 17.58, 21.3 16.57 C13.31 15.55, 5.63 13.77, 2.61 11.99 C-0.41 10.21, -0.15 7.61, 3.17 5.87 C6.49 4.13, 14.16 2.5, 22.53 1.54 C30.9 0.58, 48.03 0.28, 53.37 0.12 C58.72 -0.03, 54.67 0.5, 54.61 0.63 M51.62 0.68 C60.51 0.87, 71.7 1.69, 77.78 3.12 C83.86 4.56, 88.15 7.27, 88.12 9.29 C88.09 11.3, 83.72 13.82, 77.61 15.2 C71.5 16.58, 60.76 17.41, 51.45 17.55 C42.15 17.69, 29.96 16.93, 21.79 16.04 C13.62 15.15, 5.6 13.9, 2.42 12.2 C-0.75 10.49, -0.32 7.66, 2.74 5.79 C5.79 3.91, 12.72 1.91, 20.77 0.93 C28.81 -0.05, 46.02 -0.02, 51.01 -0.11 C56.01 -0.2, 50.95 0.17, 50.72 0.38" stroke="#0a11d3" stroke-width="1" fill="none"></path></g><g stroke-linecap="round" transform="translate(699.7091181210117 960.4692394922397) rotate(0 6.423028523489904 6.97095218120802)"><path d="M5.78 0.51 C7.07 0.37, 9.45 0.56, 10.51 1.37 C11.57 2.18, 11.88 4.01, 12.12 5.35 C12.37 6.69, 12.42 8.05, 11.98 9.44 C11.54 10.82, 10.69 13, 9.5 13.65 C8.3 14.3, 6.25 13.76, 4.82 13.34 C3.38 12.91, 1.64 12.29, 0.87 11.12 C0.1 9.95, 0.03 7.75, 0.19 6.31 C0.36 4.88, 0.88 3.59, 1.87 2.53 C2.86 1.46, 5.45 0.26, 6.13 -0.08 C6.81 -0.43, 5.94 0.34, 5.94 0.47 M6.81 0 C8.17 -0.19, 9.04 0.82, 10.07 1.74 C11.1 2.66, 12.78 4.1, 13 5.51 C13.22 6.92, 11.99 8.92, 11.39 10.21 C10.8 11.5, 10.5 12.59, 9.42 13.24 C8.33 13.9, 6.3 14.62, 4.87 14.15 C3.44 13.69, 1.56 11.76, 0.85 10.45 C0.15 9.13, 0.31 7.61, 0.64 6.24 C0.98 4.88, 1.95 3.23, 2.86 2.26 C3.77 1.28, 5.63 0.84, 6.1 0.39 C6.57 -0.05, 5.66 -0.36, 5.67 -0.42" stroke="none" stroke-width="0" fill="#fff"></path><path d="M5.42 0.45 C6.65 -0.03, 8.34 -0.31, 9.53 0.3 C10.72 0.91, 12.03 2.57, 12.56 4.1 C13.09 5.64, 13.1 8.02, 12.7 9.5 C12.3 10.99, 11.28 12.21, 10.15 12.99 C9.01 13.77, 7.27 14.35, 5.89 14.17 C4.5 13.99, 2.87 12.98, 1.85 11.91 C0.82 10.83, -0.11 9.27, -0.28 7.72 C-0.45 6.17, -0.04 3.86, 0.86 2.61 C1.75 1.36, 4.23 0.67, 5.12 0.22 C6 -0.23, 6.02 -0.24, 6.16 -0.07 M7.03 0.03 C8.3 -0.08, 10.02 1.03, 10.95 2.09 C11.89 3.14, 12.53 5, 12.63 6.38 C12.73 7.75, 12.31 9.25, 11.57 10.34 C10.82 11.44, 9.43 12.37, 8.16 12.94 C6.88 13.51, 5.09 14.19, 3.93 13.76 C2.76 13.34, 1.93 11.78, 1.17 10.41 C0.41 9.04, -0.83 7.04, -0.64 5.55 C-0.46 4.06, 1.14 2.38, 2.28 1.47 C3.43 0.56, 5.67 0.28, 6.24 0.09 C6.81 -0.1, 5.76 0.17, 5.73 0.32" stroke="#0a11d3" stroke-width="1" fill="none"></path></g><g stroke-linecap="round" transform="translate(699.7091181210117 991.0716933513002) rotate(0 6.423028523489904 6.97095218120802)"><path d="M5.59 0.28 C6.78 -0.13, 7.91 0.46, 9 1.08 C10.09 1.7, 11.48 2.57, 12.12 3.99 C12.75 5.4, 13.22 8.15, 12.83 9.58 C12.44 11, 11.06 11.8, 9.78 12.53 C8.5 13.27, 6.48 14.15, 5.15 13.97 C3.82 13.8, 2.64 12.55, 1.78 11.48 C0.93 10.42, 0.06 9.09, 0.03 7.59 C-0.01 6.1, 0.71 3.72, 1.6 2.52 C2.49 1.33, 4.62 0.8, 5.35 0.4 C6.08 0, 5.97 0.16, 5.99 0.15 M7.33 0.36 C8.58 0.54, 10.92 1.43, 11.72 2.54 C12.53 3.65, 12.14 5.57, 12.17 7.04 C12.2 8.51, 12.6 10.13, 11.89 11.36 C11.17 12.59, 9.36 14.2, 7.88 14.44 C6.4 14.67, 4.15 13.58, 2.99 12.76 C1.83 11.94, 1.22 10.81, 0.91 9.51 C0.6 8.2, 0.75 6.32, 1.13 4.94 C1.51 3.57, 2.19 2.14, 3.19 1.24 C4.18 0.35, 6.37 -0.15, 7.09 -0.43 C7.82 -0.71, 7.49 -0.7, 7.54 -0.42" stroke="none" stroke-width="0" fill="#fff"></path><path d="M6.66 -0.49 C7.94 -0.64, 9.78 0.36, 10.83 1.49 C11.87 2.62, 12.69 4.77, 12.92 6.3 C13.15 7.83, 12.89 9.42, 12.21 10.68 C11.53 11.94, 10.15 13.34, 8.83 13.85 C7.52 14.36, 5.68 14.22, 4.3 13.72 C2.91 13.21, 1.3 12.18, 0.53 10.82 C-0.25 9.45, -0.6 7.06, -0.36 5.54 C-0.12 4.03, 0.76 2.67, 1.97 1.71 C3.18 0.75, 6.01 -0.04, 6.89 -0.22 C7.77 -0.39, 7.31 0.43, 7.27 0.65 M8.09 0.64 C9.26 0.93, 10.58 2.21, 11.29 3.27 C12.01 4.34, 12.47 5.75, 12.38 7.03 C12.29 8.31, 11.63 9.8, 10.74 10.97 C9.86 12.14, 8.3 13.75, 7.07 14.06 C5.85 14.37, 4.64 13.68, 3.4 12.83 C2.16 11.98, 0.12 10.39, -0.36 8.97 C-0.85 7.54, -0.12 5.61, 0.48 4.28 C1.07 2.94, 2.1 1.64, 3.19 0.98 C4.28 0.31, 6.32 0.38, 7.01 0.3 C7.7 0.22, 7.21 0.54, 7.31 0.5" stroke="#0a11d3" stroke-width="1" fill="none"></path></g><g stroke-linecap="round" transform="translate(699.7091181210117 1024.3324945257966) rotate(0 6.423028523489904 6.97095218120802)"><path d="M7.45 0.43 C8.61 0.58, 10.36 1.18, 11.31 2.41 C12.26 3.63, 13.19 6.3, 13.15 7.8 C13.11 9.3, 12.13 10.36, 11.08 11.4 C10.02 12.43, 8.16 13.8, 6.82 14.01 C5.48 14.22, 4.13 13.44, 3.04 12.67 C1.95 11.9, 0.67 10.82, 0.28 9.38 C-0.1 7.95, 0.21 5.46, 0.74 4.07 C1.27 2.68, 2.2 1.69, 3.46 1.05 C4.72 0.4, 7.52 0.4, 8.31 0.22 C9.1 0.04, 8.19 -0.21, 8.19 -0.03 M6.69 -0.07 C7.95 -0.22, 8.75 0.6, 9.87 1.53 C10.98 2.47, 12.95 3.95, 13.39 5.53 C13.82 7.11, 13.29 9.71, 12.48 11.02 C11.67 12.32, 9.82 12.88, 8.54 13.35 C7.26 13.82, 5.98 14.23, 4.81 13.83 C3.65 13.44, 2.37 12.26, 1.56 10.98 C0.75 9.7, -0.08 7.82, -0.06 6.17 C-0.04 4.52, 0.63 2.22, 1.69 1.08 C2.75 -0.07, 5.54 -0.61, 6.29 -0.7 C7.04 -0.78, 6.08 0.31, 6.2 0.58" stroke="none" stroke-width="0" fill="#fff"></path><path d="M7.54 -0.14 C8.85 0.13, 10.43 1.58, 11.36 2.75 C12.29 3.92, 13.05 5.41, 13.12 6.88 C13.19 8.35, 12.65 10.38, 11.78 11.57 C10.91 12.76, 9.35 13.69, 7.9 14.03 C6.46 14.36, 4.42 14.33, 3.1 13.57 C1.78 12.81, 0.51 10.89, -0.02 9.45 C-0.55 8.01, -0.61 6.38, -0.08 4.94 C0.46 3.51, 1.84 1.54, 3.19 0.82 C4.54 0.1, 7.23 0.63, 8.03 0.63 C8.83 0.63, 8.01 0.7, 8 0.81 M6.4 0.72 C7.55 0.55, 9.17 0.9, 10.14 1.66 C11.11 2.42, 11.97 3.78, 12.21 5.29 C12.45 6.8, 12.13 9.38, 11.56 10.73 C10.99 12.09, 10.17 13, 8.81 13.41 C7.46 13.82, 4.75 13.73, 3.43 13.19 C2.11 12.64, 1.45 11.39, 0.89 10.16 C0.32 8.92, -0.12 7.17, 0.02 5.77 C0.17 4.37, 0.71 2.68, 1.75 1.76 C2.78 0.84, 5.41 0.63, 6.22 0.24 C7.03 -0.15, 6.62 -0.77, 6.61 -0.58" stroke="#0a11d3" stroke-width="1" fill="none"></path></g><g transform="translate(593.3204835479432 1059.7026627898383) rotate(0 81.162109375 34.5)"><text x="81.162109375" y="0" font-family="Helvetica, Segoe UI Emoji" font-size="20px" fill="#1e1e1e" text-anchor="middle" style="white-space: pre;" direction="ltr" dominant-baseline="text-before-edge">Google CloudSQL</text><text x="81.162109375" y="23" font-family="Helvetica, Segoe UI Emoji" font-size="20px" fill="#1e1e1e" text-anchor="middle" style="white-space: pre;" direction="ltr" dominant-baseline="text-before-edge">(Postgres)</text><text x="81.162109375" y="46" font-family="Helvetica, Segoe UI Emoji" font-size="20px" fill="#1e1e1e" text-anchor="middle" style="white-space: pre;" direction="ltr" dominant-baseline="text-before-edge">[13 - managed]</text></g><g stroke-linecap="round" transform="translate(512.085543922249 36.64465713451767) rotate(0 134.306640625 90.09375)"><path d="M32 0 C81.2 2.71, 128.56 -0.47, 236.61 0 M32 0 C78.76 1.1, 124.21 0.01, 236.61 0 M236.61 0 C258.74 -0.33, 268.68 11.1, 268.61 32 M236.61 0 C259.42 -1.18, 266.36 10.05, 268.61 32 M268.61 32 C269.79 59.56, 267.9 87.05, 268.61 148.19 M268.61 32 C269.16 58.47, 269.57 83.68, 268.61 148.19 M268.61 148.19 C267.92 170.32, 256.65 181.23, 236.61 180.19 M268.61 148.19 C268.83 168.17, 255.99 180.09, 236.61 180.19 M236.61 180.19 C161.58 181.19, 89.59 180.31, 32 180.19 M236.61 180.19 C156.69 181.41, 78.64 181.87, 32 180.19 M32 180.19 C10.08 180.29, 1.51 171.39, 0 148.19 M32 180.19 C11.64 181.88, 2.1 170.98, 0 148.19 M0 148.19 C0.67 103.69, 1.95 60.72, 0 32 M0 148.19 C-1.11 103.55, 0.14 58.16, 0 32 M0 32 C1.92 10.98, 11.65 0.49, 32 0 M0 32 C-1.86 11.05, 12.3 2.05, 32 0" stroke="#1e1e1e" stroke-width="2" fill="none"></path></g><g transform="translate(581.914645484749 103.73840713451767) rotate(0 64.4775390625 23)"><text x="64.4775390625" y="0" font-family="Helvetica, Segoe UI Emoji" font-size="20px" fill="#1e1e1e" text-anchor="middle" style="white-space: pre;" direction="ltr" dominant-baseline="text-before-edge">Flutter App</text><text x="64.4775390625" y="23" font-family="Helvetica, Segoe UI Emoji" font-size="20px" fill="#1e1e1e" text-anchor="middle" style="white-space: pre;" direction="ltr" dominant-baseline="text-before-edge">[Flutter 3.24.4]</text></g><g stroke-linecap="round"><g transform="translate(362.1064783890947 228.82770710165252) rotate(0 57.49446257524011 80.83008591952671)"><path d="M-0.46 -0.06 C18.89 27.01, 96.37 135.39, 115.7 162.45 M1.49 -1.13 C20.78 25.6, 96.21 133.83, 115.12 160.74" stroke="#1e1e1e" stroke-width="2" fill="none"></path></g><g transform="translate(362.1064783890947 228.82770710165252) rotate(0 57.49446257524011 80.83008591952671)"><path d="M90.55 143.52 C96.99 149.38, 104.92 153.62, 115.12 160.74 M90.55 143.52 C98.56 148.89, 108.04 155.94, 115.12 160.74" stroke="#1e1e1e" stroke-width="2" fill="none"></path></g><g transform="translate(362.1064783890947 228.82770710165252) rotate(0 57.49446257524011 80.83008591952671)"><path d="M107.36 131.76 C109.34 140.67, 112.8 148.04, 115.12 160.74 M107.36 131.76 C109.36 141.26, 112.89 152.46, 115.12 160.74" stroke="#1e1e1e" stroke-width="2" fill="none"></path></g></g><mask></mask><g stroke-linecap="round"><g transform="translate(612.0694463905285 224.1101147264237) rotate(0 -42.700373296072485 82.52781820742757)"><path d="M-0.2 0.29 C-14.59 28.01, -71.24 138.08, -85.41 165.38 M-1.76 -0.6 C-16.4 26.81, -72.34 135.84, -86.37 163.43" stroke="#1e1e1e" stroke-width="2" fill="none"></path></g><g transform="translate(612.0694463905285 224.1101147264237) rotate(0 -42.700373296072485 82.52781820742757)"><path d="M-82.66 133.66 C-83.81 144.95, -85.16 156.53, -86.37 163.43 M-82.66 133.66 C-83.11 140.41, -83.27 147.06, -86.37 163.43" stroke="#1e1e1e" stroke-width="2" fill="none"></path></g><g transform="translate(612.0694463905285 224.1101147264237) rotate(0 -42.700373296072485 82.52781820742757)"><path d="M-64.39 143.01 C-72.42 150.72, -80.7 158.74, -86.37 163.43 M-64.39 143.01 C-68.93 147.65, -73.15 152.22, -86.37 163.43" stroke="#1e1e1e" stroke-width="2" fill="none"></path></g></g><mask></mask><g stroke-linecap="round" transform="translate(365.7650593924592 675.9155149212684) rotate(0 134.306640625 90.09375)"><path d="M32 0 C105.72 -0.23, 183.87 1.66, 236.61 0 M32 0 C105.92 -0.76, 178.92 0.53, 236.61 0 M236.61 0 C258.76 1.69, 267.19 9.63, 268.61 32 M236.61 0 C256.85 -1.57, 270.1 9.4, 268.61 32 M268.61 32 C269.56 66.75, 269.61 103.73, 268.61 148.19 M268.61 32 C267.46 73.2, 269.01 115.94, 268.61 148.19 M268.61 148.19 C269.8 169.34, 259.22 178.34, 236.61 180.19 M268.61 148.19 C267.91 171.81, 256.23 180.34, 236.61 180.19 M236.61 180.19 C173.12 177.21, 108.92 179.25, 32 180.19 M236.61 180.19 C157.54 180.65, 77.7 180.62, 32 180.19 M32 180.19 C10.75 178.64, 0.82 169.19, 0 148.19 M32 180.19 C9.36 181.37, -2.18 170.59, 0 148.19 M0 148.19 C2.03 114.14, 0.63 78.73, 0 32 M0 148.19 C-0.93 120.87, 0.43 92.86, 0 32 M0 32 C-1.76 9.55, 11.26 0.66, 32 0 M0 32 C-1.72 12.69, 12.7 1.31, 32 0" stroke="#1e1e1e" stroke-width="2" fill="none"></path></g><g transform="translate(437.8304890799592 743.0092649212684) rotate(0 62.2412109375 23)"><text x="62.2412109375" y="0" font-family="Helvetica, Segoe UI Emoji" font-size="20px" fill="#1e1e1e" text-anchor="middle" style="white-space: pre;" direction="ltr" dominant-baseline="text-before-edge">Elixir Modulith</text><text x="62.2412109375" y="23" font-family="Helvetica, Segoe UI Emoji" font-size="20px" fill="#1e1e1e" text-anchor="middle" style="white-space: pre;" direction="ltr" dominant-baseline="text-before-edge">[1.15.7]</text></g><g transform="translate(332.97138543607593 1051.4795701858932) rotate(0 70.6103515625 23)"><text x="70.6103515625" y="0" font-family="Helvetica, Segoe UI Emoji" font-size="20px" fill="#1e1e1e" text-anchor="middle" style="white-space: pre;" direction="ltr" dominant-baseline="text-before-edge">Google PubSub</text><text x="70.6103515625" y="23" font-family="Helvetica, Segoe UI Emoji" font-size="20px" fill="#1e1e1e" text-anchor="middle" style="white-space: pre;" direction="ltr" dominant-baseline="text-before-edge">[managed]</text></g><g stroke-linecap="round"><g transform="translate(379.5390125322482 946.3458814384938) rotate(89.99999999999994 26.130466310641737 64.9614896642376)" fill-rule="evenodd"><path d="M2.08 -4.82 C2.08 -4.82, 2.08 -4.82, 2.08 -4.82 M2.08 -4.82 C2.08 -4.82, 2.08 -4.82, 2.08 -4.82 M0.51 3.09 C2.65 0.96, 4.27 -3.39, 12.31 -10.5 M0.51 3.09 C3.55 -0.65, 7.19 -4.63, 12.31 -10.5 M0.24 9.49 C2.51 4.55, 7.79 0.25, 18.61 -11.64 M0.24 9.49 C4.3 4.91, 10.03 -0.62, 18.61 -11.64 M0.64 15.13 C7.43 7.9, 15.11 -1.46, 24.26 -12.04 M0.64 15.13 C6.33 10.39, 11.08 3.71, 24.26 -12.04 M0.38 21.53 C5.29 13.68, 12.83 7.87, 29.24 -11.68 M0.38 21.53 C6.21 15.31, 13.11 7.76, 29.24 -11.68 M0.77 27.17 C13.32 15.41, 24.28 1.34, 33.57 -10.56 M0.77 27.17 C10.73 15.57, 19.12 5.3, 33.57 -10.56 M0.51 33.57 C15.27 16.56, 29.43 3.02, 37.91 -9.45 M0.51 33.57 C9.34 21.91, 20.37 10.14, 37.91 -9.45 M0.25 39.97 C12.58 25.91, 24.28 10.86, 42.24 -8.33 M0.25 39.97 C12.51 25.68, 26.64 9.78, 42.24 -8.33 M0.64 45.61 C12.14 31.98, 21.31 22.88, 46.57 -7.22 M0.64 45.61 C14.13 29, 30.18 10.9, 46.57 -7.22 M0.38 52.01 C13.21 38.3, 27.62 21.38, 48.93 -3.84 M0.38 52.01 C18.44 31.57, 35.6 10.65, 48.93 -3.84 M0.78 57.65 C19.19 38.06, 36.03 18.16, 51.29 -0.46 M0.78 57.65 C19.86 35.59, 37.27 14.03, 51.29 -0.46 M52.61 -1.97 C52.61 -1.97, 52.61 -1.97, 52.61 -1.97 M52.61 -1.97 C52.61 -1.97, 52.61 -1.97, 52.61 -1.97 M0.52 64.05 C11.75 51.22, 21.99 39.65, 52.34 4.43 M0.52 64.05 C11.98 52.68, 22.05 39.23, 52.34 4.43 M0.91 69.69 C15.43 51.1, 32.75 31.43, 52.08 10.82 M0.91 69.69 C15.73 52.01, 32.75 33.06, 52.08 10.82 M0.65 76.09 C19.29 54.41, 37.67 33.48, 52.48 16.47 M0.65 76.09 C12.08 62.91, 24.38 47.55, 52.48 16.47 M1.04 81.73 C19.07 59.42, 40.13 39.36, 52.22 22.86 M1.04 81.73 C14.33 68.45, 25.33 54.96, 52.22 22.86 M0.78 88.13 C22.43 65.04, 42.39 40.94, 52.61 28.51 M0.78 88.13 C15.93 70.46, 32.57 51.76, 52.61 28.51 M0.52 94.53 C20.11 72.2, 40.92 48.94, 52.35 34.91 M0.52 94.53 C14.42 78.64, 27.59 63.62, 52.35 34.91 M0.91 100.17 C20.09 78.17, 40.48 55.4, 52.09 41.3 M0.91 100.17 C16.21 82.47, 32.45 64.89, 52.09 41.3 M0.65 106.57 C13.81 89.36, 29.69 73.46, 52.48 46.95 M0.65 106.57 C20.1 85.19, 38.57 62.94, 52.48 46.95 M1.05 112.21 C16.23 92.05, 36.82 74.05, 52.22 53.34 M1.05 112.21 C15.41 94.17, 31.9 76.01, 52.22 53.34 M0.79 118.61 C18.47 96.47, 40.27 76.6, 52.61 58.99 M0.79 118.61 C18.79 97.02, 37.92 75.07, 52.61 58.99 M1.18 124.25 C11.88 110.03, 23.27 97.53, 52.35 65.39 M1.18 124.25 C11.81 111.97, 22.99 98.39, 52.35 65.39 M0.92 130.65 C14.95 113.66, 32.2 94.35, 52.09 71.78 M0.92 130.65 C13.75 115.47, 28.52 99.52, 52.09 71.78 M2.63 134.78 C14.18 122.24, 26.69 107.03, 52.49 77.43 M2.63 134.78 C12.81 122.72, 24.32 110.59, 52.49 77.43 M5.64 137.41 C20.63 120.41, 38.34 100.97, 52.23 83.82 M5.64 137.41 C22.09 118.61, 39.49 98.54, 52.23 83.82 M9.32 139.28 C23.91 123.92, 35 111.39, 52.62 89.47 M9.32 139.28 C21.61 126.65, 32.53 113.85, 52.62 89.47 M13.65 140.39 C24.35 125.74, 38.8 111.47, 52.36 95.86 M13.65 140.39 C26.56 125.82, 38.27 113.17, 52.36 95.86 M17.98 141.51 C27.3 127.42, 38.35 115.57, 52.1 102.26 M17.98 141.51 C29.32 129.35, 40.11 116.43, 52.1 102.26 M22.31 142.62 C28.65 133.39, 38.3 127.06, 52.49 107.91 M22.31 142.62 C30.1 134.51, 37.26 126.22, 52.49 107.91 M27.96 142.23 C35.94 132.32, 47.76 119.21, 52.23 114.3 M27.96 142.23 C33.03 134.77, 39.25 127.98, 52.23 114.3 M34.25 141.08 C39.54 135.3, 43.54 130.22, 52.62 119.95 M34.25 141.08 C38.19 134.93, 43.21 130.23, 52.62 119.95 M39.9 140.68 C43.95 136.77, 49.13 129.32, 52.36 126.34 M39.9 140.68 C43.6 136.49, 46.45 133.31, 52.36 126.34 M50.13 135.01 C50.39 134.56, 50.81 134.04, 51.45 133.5 M50.13 135.01 C50.53 134.46, 51.01 134.13, 51.45 133.5" stroke="#40c057" stroke-width="0.5" fill="none"></path><path d="M0.52 -0.22 C0.35 19.35, -0.31 95.01, -0.48 116.68 C-0.66 138.36, -0.89 126.75, -0.51 129.84 C-0.13 132.93, -0.47 133.55, 1.8 135.24 C4.07 136.94, 8.72 138.69, 13.1 140.01 C17.48 141.33, 23.14 143.16, 28.08 143.16 C33.02 143.17, 38.76 141.54, 42.75 140.04 C46.73 138.53, 50.39 136.1, 51.97 134.15 C53.56 132.2, 52.2 131.06, 52.25 128.36 C52.3 125.65, 52.36 137.72, 52.28 117.92 C52.21 98.13, 51.71 29.51, 51.81 9.58 C51.91 -10.36, 53.25 0.89, 52.87 -1.67 C52.49 -4.22, 51.3 -4.46, 49.53 -5.76 C47.75 -7.07, 46.24 -8.29, 42.2 -9.49 C38.16 -10.69, 30.05 -12.77, 25.28 -12.97 C20.51 -13.16, 17.48 -11.85, 13.6 -10.66 C9.72 -9.47, 4.31 -7.58, 1.99 -5.82 C-0.32 -4.06, 0.18 -1.04, -0.29 -0.08 C-0.76 0.87, -0.7 -0.29, -0.84 -0.11 M-0.66 -1.39 C-0.48 18.44, 2.03 96.08, 1.88 118.15 C1.74 140.22, -1.49 128.04, -1.55 131.01 C-1.6 133.99, -0.71 134.52, 1.58 136.02 C3.87 137.52, 7.51 138.92, 12.18 140.02 C16.85 141.12, 24.42 142.8, 29.6 142.6 C34.78 142.4, 39.63 140.26, 43.27 138.8 C46.92 137.34, 50.23 135.3, 51.46 133.86 C52.69 132.43, 50.38 132.98, 50.64 130.2 C50.91 127.43, 52.83 137.15, 53.05 117.19 C53.27 97.23, 52.12 29.82, 51.94 10.44 C51.76 -8.93, 52.25 3.74, 51.97 0.94 C51.7 -1.86, 51.96 -4.59, 50.28 -6.35 C48.6 -8.12, 46.01 -8.41, 41.89 -9.66 C37.77 -10.91, 30.63 -13.9, 25.58 -13.86 C20.54 -13.82, 15.77 -10.81, 11.61 -9.41 C7.44 -8.02, 2.83 -7.11, 0.61 -5.5 C-1.61 -3.88, -1.77 -0.66, -1.71 0.28 C-1.65 1.21, 0.91 0.17, 0.99 0.09" stroke="#087f5b" stroke-width="1" fill="none"></path></g></g><mask></mask><g stroke-linecap="round"><g transform="translate(355.01160212789136 1005.4508379960588) rotate(89.99999999999994 25.358738319623797 5.765431739611074)"><path d="M-0.66 -0.14 C-0.61 0.7, -0.32 3.31, 0.82 4.78 C1.96 6.25, 3.71 7.62, 6.21 8.68 C8.7 9.74, 12.35 10.43, 15.82 11.16 C19.28 11.88, 22.87 13.11, 26.99 13.03 C31.12 12.95, 36.75 12.09, 40.57 10.69 C44.4 9.29, 48.25 6.64, 49.96 4.63 C51.67 2.61, 50.71 -0.44, 50.84 -1.4 M1.2 -1.25 C1 -0.22, -1.64 4.35, -0.4 6.17 C0.84 7.99, 6.41 8.72, 8.63 9.67 C10.86 10.62, 10.12 11.18, 12.95 11.88 C15.79 12.59, 20.82 14.26, 25.64 13.9 C30.45 13.55, 38.23 11.52, 41.87 9.76 C45.5 7.99, 46.12 5.32, 47.45 3.34 C48.79 1.35, 49.61 -1.76, 49.88 -2.17" stroke="#087f5b" stroke-width="1" fill="none"></path></g></g><mask></mask><g stroke-linecap="round"><g transform="translate(400.4373832763332 1005.7899231210589) rotate(89.99999999999994 25.28623953630185 4.621570289024817)"><path d="M-0.52 -0.28 C-0.33 0.32, -1 2.26, 0.44 3.43 C1.88 4.6, 5.71 5.57, 8.13 6.74 C10.54 7.91, 11.88 9.91, 14.94 10.44 C18 10.97, 22.03 10.24, 26.48 9.92 C30.93 9.6, 37.91 9.69, 41.66 8.5 C45.4 7.32, 47.48 4.39, 48.97 2.81 C50.45 1.22, 50.36 -0.42, 50.57 -1.01 M1.41 -1.47 C2.03 -0.71, 1.6 3.12, 2.68 4.64 C3.77 6.16, 5.81 7.05, 7.91 7.68 C10.02 8.3, 12.47 7.91, 15.3 8.36 C18.13 8.82, 20.79 10.56, 24.89 10.42 C28.99 10.28, 35.79 8.47, 39.92 7.52 C44.05 6.57, 48.07 6.22, 49.67 4.7 C51.28 3.17, 49.15 -0.48, 49.54 -1.63" stroke="#087f5b" stroke-width="1" fill="none"></path></g></g><mask></mask><g stroke-linecap="round" transform="translate(447.04215640844825 999.9367272001708) rotate(89.99999999999994 25.639064267762706 11.398576284497949)"><path d="M29.01 -0.03 C34.14 0.2, 39.9 2.58, 43.7 4.25 C47.51 5.91, 51.43 7.66, 51.82 9.95 C52.21 12.23, 49.43 15.96, 46.06 17.95 C42.68 19.95, 37.02 21.35, 31.57 21.93 C26.11 22.51, 18.36 22.37, 13.35 21.43 C8.33 20.5, 3.4 18.56, 1.49 16.34 C-0.42 14.12, 0.12 10.5, 1.9 8.14 C3.68 5.78, 7.13 3.56, 12.17 2.18 C17.2 0.81, 27.84 0.15, 32.12 -0.12 C36.39 -0.39, 37.65 0.45, 37.84 0.58 M34.24 1.58 C39.43 1.69, 43.89 2.02, 46.79 3.99 C49.69 5.97, 52.41 10.86, 51.64 13.44 C50.87 16.01, 46.28 17.75, 42.15 19.46 C38.02 21.18, 32.39 23.43, 26.87 23.73 C21.34 24.02, 13.44 22.9, 8.98 21.24 C4.53 19.58, 0.97 16.12, 0.12 13.77 C-0.73 11.42, 1.23 9.19, 3.87 7.16 C6.5 5.12, 11.1 2.83, 15.93 1.58 C20.76 0.32, 29.86 -0.35, 32.84 -0.37 C35.82 -0.38, 33.79 1.16, 33.81 1.47" stroke="none" stroke-width="0" fill="#fff"></path><path d="M37.26 0.89 C42.25 1.84, 46.85 5.14, 49.06 7.4 C51.26 9.66, 52.06 12.24, 50.49 14.46 C48.92 16.68, 44.24 19.4, 39.65 20.74 C35.06 22.07, 28.33 22.53, 22.94 22.46 C17.54 22.38, 11.28 21.81, 7.31 20.27 C3.33 18.73, -0.52 15.68, -0.9 13.22 C-1.29 10.75, 1.69 7.62, 5.02 5.48 C8.34 3.33, 13.65 0.86, 19.06 0.35 C24.46 -0.16, 34.12 2.17, 37.47 2.41 C40.83 2.65, 39.42 1.82, 39.19 1.79 M24.09 1.29 C29.4 1.39, 37.29 2.91, 41.55 4.06 C45.81 5.2, 48.47 6.01, 49.65 8.15 C50.82 10.3, 50.91 14.78, 48.58 16.94 C46.25 19.1, 41.11 20.25, 35.66 21.13 C30.22 22.01, 21.12 23.02, 15.9 22.22 C10.68 21.42, 6.92 18.37, 4.35 16.33 C1.79 14.28, -0.19 12.4, 0.53 9.95 C1.24 7.51, 4.7 3.46, 8.66 1.66 C12.62 -0.15, 21.58 -0.77, 24.29 -0.88 C27.01 -0.99, 24.97 0.7, 24.92 1" stroke="#087f5b" stroke-width="1" fill="none"></path></g><g stroke-linecap="round"><g transform="translate(499.77121642668055 580.4749675364147) rotate(0 -0.09765716700314897 44.464059345509156)"><path d="M0.83 -1.19 C0.77 13.6, -1.23 74.72, -1.21 89.58 M-0.19 0.8 C0.18 15.17, 0.81 73.14, 0.97 87.8" stroke="#1e1e1e" stroke-width="2" fill="none"></path></g><g transform="translate(499.77121642668055 580.4749675364147) rotate(0 -0.09765716700314897 44.464059345509156)"><path d="M-9.6 59.73 C-8.94 64.46, -3.43 74.55, 0.97 87.8 M-9.6 59.73 C-7.11 65.26, -4.35 71.12, 0.97 87.8" stroke="#1e1e1e" stroke-width="2" fill="none"></path></g><g transform="translate(499.77121642668055 580.4749675364147) rotate(0 -0.09765716700314897 44.464059345509156)"><path d="M10.92 59.5 C6.84 64.42, 7.61 74.56, 0.97 87.8 M10.92 59.5 C8.89 65.03, 7.14 70.94, 0.97 87.8" stroke="#1e1e1e" stroke-width="2" fill="none"></path></g></g><mask></mask><g stroke-linecap="round"><g transform="translate(582.9720452535365 863.1098330230571) rotate(0 37.99983825710444 32.65762015598955)"><path d="M0.17 -0.71 C12.78 10.38, 62.61 54.63, 75.2 65.6 M-1.21 1.53 C11.84 12.32, 64.82 52.83, 77.49 63.63" stroke="#1e1e1e" stroke-width="2" fill="none"></path></g><g transform="translate(582.9720452535365 863.1098330230571) rotate(0 37.99983825710444 32.65762015598955)"><path d="M49.08 53.99 C55.12 55.09, 64.09 58.43, 77.49 63.63 M49.08 53.99 C56.36 57.68, 65.68 60.25, 77.49 63.63" stroke="#1e1e1e" stroke-width="2" fill="none"></path></g><g transform="translate(582.9720452535365 863.1098330230571) rotate(0 37.99983825710444 32.65762015598955)"><path d="M61.92 37.99 C64.53 43.22, 70.2 50.67, 77.49 63.63 M61.92 37.99 C65.45 46.14, 71.11 53.27, 77.49 63.63" stroke="#1e1e1e" stroke-width="2" fill="none"></path></g></g><mask></mask><g mask="url(#mask-FitqG2RwbnceMMtMZq1qa)" stroke-linecap="round"><g transform="translate(481.958207610079 859.0457924577723) rotate(0 -2.2608197737160083 56.71014078876459)"><path d="M1.12 -0.34 C0.43 18.44, -2.7 95.11, -3.53 113.93 M0.25 -1.57 C-0.57 17.36, -3.2 92.91, -3.95 112.07" stroke="#1e1e1e" stroke-width="2" fill="none"></path></g><g transform="translate(481.958207610079 859.0457924577723) rotate(0 -2.2608197737160083 56.71014078876459)"><path d="M10.24 28.24 C6.18 19.95, 4.39 9.36, 1.12 -0.34 M10.24 28.24 C7.88 22.07, 5.5 15.82, 1.12 -0.34" stroke="#1e1e1e" stroke-width="2" fill="none"></path></g><g transform="translate(481.958207610079 859.0457924577723) rotate(0 -2.2608197737160083 56.71014078876459)"><path d="M-10.27 27.41 C-7.12 19.22, -1.71 8.92, 1.12 -0.34 M-10.27 27.41 C-7.97 21.28, -5.71 15.21, 1.12 -0.34" stroke="#1e1e1e" stroke-width="2" fill="none"></path></g><g transform="translate(481.958207610079 859.0457924577723) rotate(0 -2.2608197737160083 56.71014078876459)"><path d="M-13.17 83.52 C-10.22 95.11, -5.57 104.58, -3.95 112.07 M-13.17 83.52 C-11.18 90.17, -9.41 96.86, -3.95 112.07" stroke="#1e1e1e" stroke-width="2" fill="none"></path></g><g transform="translate(481.958207610079 859.0457924577723) rotate(0 -2.2608197737160083 56.71014078876459)"><path d="M7.34 84.28 C3.08 95.79, 0.53 104.99, -3.95 112.07 M7.34 84.28 C4.68 90.91, 1.8 97.43, -3.95 112.07" stroke="#1e1e1e" stroke-width="2" fill="none"></path></g></g><mask id="mask-FitqG2RwbnceMMtMZq1qa"><rect x="0" y="0" fill="#fff" width="586.479847157511" height="1072.4660740353015"></rect><rect x="436.8995362738629" y="892.7559332465369" fill="#000" width="85.595703125" height="46" opacity="1"></rect></mask><g transform="translate(436.89953627386296 892.755933246537) rotate(0 43.641187562239395 22.467601137789813)"><text x="42.7978515625" y="0" font-family="Helvetica, Segoe UI Emoji" font-size="20px" fill="#1e1e1e" text-anchor="middle" style="white-space: pre;" direction="ltr" dominant-baseline="text-before-edge">publish &amp;</text><text x="42.7978515625" y="23" font-family="Helvetica, Segoe UI Emoji" font-size="20px" fill="#1e1e1e" text-anchor="middle" style="white-space: pre;" direction="ltr" dominant-baseline="text-before-edge">subscribe</text></g><g stroke-linecap="round"><g transform="translate(94.93460717298774 936.998359734843) rotate(0 44.06059301640445 47.85201411482018)" fill-rule="evenodd"><path d="M-1.06 -1.6 C-0.66 13.31, 0.96 72.07, 1.21 88.18 C1.45 104.3, -0.36 93.18, 0.41 95.1 C1.18 97.02, 2.13 98.59, 5.83 99.71 C9.52 100.84, 16.05 101.32, 22.57 101.86 C29.09 102.41, 36.66 102.76, 44.95 102.96 C53.24 103.15, 65.77 103.69, 72.32 103.06 C78.87 102.43, 82.02 100.41, 84.24 99.17 C86.46 97.93, 85.16 97.62, 85.65 95.61 C86.13 93.61, 86.81 101.78, 87.16 87.14 C87.51 72.5, 87.49 22.28, 87.77 7.76 C88.05 -6.75, 89.91 1.78, 88.85 0.07 C87.78 -1.64, 84.37 -1.61, 81.38 -2.52 C78.39 -3.42, 77.39 -3.87, 70.9 -5.37 C64.4 -6.87, 51.09 -10.92, 42.4 -11.51 C33.71 -12.11, 24.83 -10.22, 18.77 -8.94 C12.71 -7.67, 9.01 -4.98, 6.05 -3.85 C3.08 -2.72, 2.16 -2.41, 0.98 -2.14 C-0.2 -1.87, -0.77 -2.61, -1.02 -2.23" stroke="none" stroke-width="0" fill="#228be6" fill-rule="evenodd"></path><path d="M1.2 0.87 C1.39 15.02, 1.19 69.96, 0.87 85.68 C0.55 101.4, -1.28 92.62, -0.71 95.2 C-0.14 97.77, 0.97 99.88, 4.29 101.11 C7.62 102.35, 12 102.13, 19.22 102.61 C26.44 103.09, 38.8 103.93, 47.63 104.01 C56.46 104.09, 65.95 103.83, 72.21 103.08 C78.47 102.33, 82.37 100.66, 85.19 99.51 C88 98.37, 88.5 98.16, 89.1 96.2 C89.69 94.25, 88.98 102.54, 88.77 87.79 C88.56 73.04, 88.04 22.24, 87.85 7.69 C87.67 -6.85, 88.77 2.6, 87.67 0.5 C86.57 -1.6, 84.17 -3.6, 81.24 -4.92 C78.3 -6.24, 76.37 -6.77, 70.06 -7.44 C63.74 -8.1, 51.52 -8.77, 43.34 -8.89 C35.16 -9, 27.68 -8.88, 20.97 -8.15 C14.26 -7.41, 6.74 -5.77, 3.08 -4.48 C-0.58 -3.19, -0.54 -0.96, -0.97 -0.39 C-1.4 0.17, 0.18 -1.27, 0.5 -1.11 M0.37 0.28 C0.48 14.54, -0.02 71.04, 0.22 87.02 C0.46 103, 1.1 94.16, 1.8 96.17 C2.5 98.18, 1.24 98.05, 4.41 99.1 C7.58 100.15, 13.95 101.26, 20.83 102.45 C27.72 103.64, 37.08 106.34, 45.73 106.22 C54.38 106.11, 65.78 102.88, 72.72 101.78 C79.67 100.67, 84.84 100.65, 87.4 99.58 C89.95 98.51, 87.64 97.37, 88.05 95.37 C88.46 93.38, 89.84 102.02, 89.85 87.61 C89.86 73.21, 88.7 23.44, 88.12 8.93 C87.53 -5.59, 87.51 2.99, 86.35 0.52 C85.19 -1.96, 83.98 -4.53, 81.16 -5.93 C78.34 -7.32, 75.63 -7.28, 69.44 -7.85 C63.24 -8.42, 51.9 -9.47, 44 -9.34 C36.1 -9.21, 28.52 -7.92, 22.04 -7.05 C15.56 -6.19, 8.64 -5.29, 5.12 -4.15 C1.6 -3.01, 1.88 -0.66, 0.92 -0.21 C-0.04 0.25, -0.18 -1.32, -0.62 -1.43" stroke="#0a11d3" stroke-width="1" fill="none"></path></g></g><mask></mask><g stroke-linecap="round"><g transform="translate(95.61806251248515 1002.5111440156304) rotate(0 44.15404313987264 4.448651936218255)"><path d="M0.58 -0.37 C0.64 0.02, -0.32 1.82, 1.6 3.25 C3.52 4.68, 8.27 7.4, 12.11 8.21 C15.95 9.02, 18.75 8.05, 24.61 8.11 C30.47 8.17, 39.58 8.57, 47.28 8.58 C54.97 8.58, 64.59 8.88, 70.79 8.16 C76.99 7.45, 81.37 5.52, 84.49 4.26 C87.6 3, 88.77 1.3, 89.5 0.6 M-0.58 -1.62 C-0.23 -1.15, 1.96 3.11, 3.93 4.45 C5.9 5.78, 7.82 5.71, 11.21 6.41 C14.61 7.12, 18.46 8.31, 24.28 8.67 C30.11 9.02, 38.18 8.81, 46.15 8.56 C54.11 8.31, 65.65 8.04, 72.07 7.17 C78.5 6.29, 81.87 4.38, 84.71 3.32 C87.54 2.26, 88.63 1.54, 89.1 0.81" stroke="#0a11d3" stroke-width="1" fill="none"></path></g></g><mask></mask><g stroke-linecap="round"><g transform="translate(94.52432100042358 969.4369894535587) rotate(0 44.15404313987264 4.448651936218255)"><path d="M-0.73 -0.65 C-0.48 0.23, 0.08 3.81, 2.08 4.94 C4.08 6.07, 7.21 5.55, 11.26 6.13 C15.31 6.71, 20.51 7.85, 26.36 8.4 C32.22 8.95, 39.07 9.35, 46.38 9.43 C53.69 9.5, 63.55 9.67, 70.23 8.86 C76.91 8.04, 83.37 6.01, 86.48 4.54 C89.6 3.08, 88.62 0.83, 88.91 0.08 M1.09 1.62 C1.11 2.22, -1.08 2.48, 1 3.36 C3.08 4.24, 9.25 5.94, 13.58 6.89 C17.9 7.85, 21.14 8.6, 26.95 9.09 C32.76 9.59, 41.06 10.01, 48.44 9.86 C55.82 9.72, 65.28 9.24, 71.22 8.23 C77.16 7.21, 81.27 5.12, 84.1 3.75 C86.92 2.38, 87.19 0.82, 88.2 0.01" stroke="#0a11d3" stroke-width="1" fill="none"></path></g></g><mask></mask><g stroke-linecap="round" transform="translate(93.40349831426181 929.1963197577463) rotate(0 43.82537305427094 8.863351988406805)"><path d="M50.32 0.29 C59.27 0.43, 70.58 1.56, 76.71 2.87 C82.85 4.17, 86.89 6.13, 87.13 8.11 C87.36 10.1, 83.85 13.18, 78.15 14.78 C72.45 16.39, 62.14 17.46, 52.93 17.74 C43.71 18.02, 31.21 17.43, 22.85 16.48 C14.48 15.54, 6.19 13.78, 2.74 12.07 C-0.7 10.36, -0.83 7.97, 2.16 6.22 C5.15 4.47, 12.48 2.49, 20.67 1.55 C28.86 0.6, 45.91 0.81, 51.3 0.56 C56.69 0.31, 53.11 0.01, 53 0.03 M46.92 0.06 C56.02 -0.03, 68.14 0.76, 74.93 1.98 C81.72 3.19, 86.9 5.31, 87.65 7.33 C88.39 9.35, 84.89 12.36, 79.4 14.08 C73.91 15.81, 63.7 17.28, 54.72 17.67 C45.73 18.06, 33.86 17.38, 25.52 16.43 C17.18 15.49, 8.72 13.52, 4.69 12 C0.67 10.47, -0.87 8.92, 1.37 7.29 C3.62 5.67, 10.4 3.54, 18.16 2.26 C25.92 0.98, 43.03 0.07, 47.92 -0.37 C52.81 -0.82, 47.72 -0.59, 47.52 -0.39" stroke="none" stroke-width="0" fill="#fff"></path><path d="M33.56 0.13 C42.2 -0.49, 55.2 -0.34, 63.68 0.62 C72.16 1.58, 80.7 4.04, 84.46 5.88 C88.21 7.73, 88.94 9.96, 86.2 11.69 C83.45 13.42, 75.89 15.23, 67.98 16.24 C60.08 17.25, 48.07 18, 38.76 17.74 C29.46 17.48, 18.66 16.07, 12.18 14.68 C5.71 13.29, 0.52 11.22, -0.08 9.41 C-0.68 7.6, 2.55 5.35, 8.6 3.81 C14.65 2.26, 31.27 0.8, 36.24 0.16 C41.21 -0.48, 38.38 -0.12, 38.44 -0.05 M41.29 0.4 C50.03 0.21, 61.7 0.32, 69.15 1.29 C76.61 2.26, 83.61 4.2, 86.01 6.22 C88.4 8.23, 87.55 11.64, 83.53 13.39 C79.5 15.14, 70.39 16.08, 61.83 16.72 C53.28 17.37, 41.14 17.85, 32.2 17.27 C23.27 16.7, 13.65 14.93, 8.22 13.28 C2.79 11.63, -1.23 9.19, -0.39 7.39 C0.46 5.6, 6.53 3.72, 13.29 2.52 C20.05 1.31, 35.7 0.52, 40.16 0.15 C44.63 -0.21, 39.98 0.22, 40.07 0.34" stroke="#0a11d3" stroke-width="1" fill="none"></path></g><g stroke-linecap="round" transform="translate(164.91323061484252 953.7721226348797) rotate(0 6.423028523489904 6.97095218120802)"><path d="M6.47 -0.06 C7.62 -0.32, 8.83 0, 9.83 1 C10.83 1.99, 12.09 4.35, 12.47 5.92 C12.85 7.49, 12.76 9.18, 12.09 10.39 C11.42 11.61, 9.8 12.68, 8.46 13.2 C7.12 13.72, 5.28 13.9, 4.04 13.5 C2.8 13.11, 1.68 12.02, 1.03 10.81 C0.38 9.61, 0.05 7.69, 0.15 6.26 C0.25 4.84, 0.64 3.35, 1.62 2.25 C2.61 1.14, 5.26 0.04, 6.06 -0.37 C6.87 -0.77, 6.38 -0.27, 6.47 -0.17 M7.07 -0.57 C8.49 -0.71, 10.12 0.02, 10.99 1.17 C11.87 2.32, 12.31 4.66, 12.32 6.31 C12.34 7.95, 11.77 9.89, 11.1 11.03 C10.42 12.17, 9.39 12.87, 8.27 13.15 C7.15 13.43, 5.66 13.11, 4.38 12.72 C3.11 12.33, 1.4 11.92, 0.64 10.8 C-0.11 9.69, -0.55 7.66, -0.14 6.02 C0.27 4.39, 1.92 2.1, 3.1 1 C4.29 -0.1, 6.42 -0.43, 6.97 -0.58 C7.53 -0.74, 6.38 -0.17, 6.44 0.07" stroke="none" stroke-width="0" fill="#fff"></path><path d="M7.32 -0.27 C8.74 -0.07, 10.51 1.58, 11.5 2.78 C12.49 3.99, 13.24 5.55, 13.28 6.95 C13.32 8.35, 12.6 10.04, 11.72 11.2 C10.84 12.35, 9.3 13.58, 7.98 13.86 C6.66 14.14, 5.06 13.59, 3.78 12.9 C2.51 12.2, 0.94 10.97, 0.33 9.68 C-0.28 8.38, -0.33 6.54, 0.13 5.11 C0.59 3.68, 1.89 1.98, 3.08 1.1 C4.27 0.21, 6.6 0, 7.29 -0.21 C7.97 -0.41, 7.19 -0.34, 7.17 -0.14 M4.58 -0.21 C5.68 -0.76, 7.65 -0.59, 8.99 0.26 C10.33 1.11, 11.99 3.46, 12.61 4.88 C13.22 6.29, 13.07 7.45, 12.69 8.76 C12.31 10.06, 11.39 11.93, 10.33 12.69 C9.28 13.46, 7.89 13.59, 6.35 13.34 C4.82 13.09, 2.18 12.18, 1.12 11.18 C0.05 10.19, 0.03 8.76, -0.03 7.38 C-0.09 6, 0.03 4.1, 0.74 2.93 C1.46 1.75, 3.61 0.77, 4.27 0.33 C4.92 -0.11, 4.55 0.16, 4.68 0.28" stroke="#0a11d3" stroke-width="1" fill="none"></path></g><g stroke-linecap="round" transform="translate(164.91323061484252 984.3745764939401) rotate(0 6.423028523489904 6.97095218120802)"><path d="M6.58 -0.4 C7.8 -0.26, 9.78 1.4, 10.81 2.58 C11.85 3.76, 12.73 5.3, 12.8 6.68 C12.86 8.06, 12.08 9.69, 11.2 10.85 C10.32 12, 8.79 13.2, 7.53 13.61 C6.27 14.03, 4.79 13.93, 3.64 13.33 C2.49 12.73, 1.3 11.33, 0.65 10.02 C0.01 8.71, -0.51 7.01, -0.21 5.48 C0.08 3.95, 1.2 1.79, 2.42 0.83 C3.64 -0.12, 6.19 -0.07, 7.1 -0.23 C8.01 -0.4, 7.84 -0.27, 7.89 -0.15 M6.68 -0.7 C7.86 -0.65, 9.23 0.73, 10.13 1.86 C11.02 2.99, 11.75 4.73, 12.05 6.09 C12.35 7.46, 12.43 8.9, 11.93 10.03 C11.42 11.16, 10.33 12.19, 9.03 12.88 C7.73 13.57, 5.53 14.48, 4.11 14.17 C2.69 13.86, 1.1 12.5, 0.52 11.02 C-0.05 9.54, 0.31 6.96, 0.65 5.28 C0.99 3.61, 1.64 1.89, 2.56 0.99 C3.48 0.1, 5.42 0.03, 6.18 -0.08 C6.93 -0.2, 7.1 0.26, 7.09 0.3" stroke="none" stroke-width="0" fill="#fff"></path><path d="M6.42 0.51 C7.78 0.44, 9.65 0.85, 10.73 1.66 C11.81 2.47, 12.63 3.94, 12.9 5.37 C13.17 6.79, 12.94 8.92, 12.34 10.22 C11.74 11.52, 10.6 12.57, 9.28 13.15 C7.95 13.73, 5.8 14.06, 4.39 13.7 C2.99 13.35, 1.57 12.29, 0.86 11.02 C0.15 9.76, -0.05 7.71, 0.13 6.14 C0.31 4.56, 0.95 2.67, 1.92 1.58 C2.89 0.49, 5.21 -0.18, 5.94 -0.38 C6.67 -0.59, 6.33 0.1, 6.31 0.35 M6.91 -0.43 C8.33 -0.17, 10.41 1.75, 11.42 2.89 C12.43 4.03, 12.88 5.05, 12.96 6.41 C13.04 7.77, 12.67 9.95, 11.93 11.08 C11.19 12.22, 10.04 12.96, 8.53 13.22 C7.02 13.47, 4.2 13.2, 2.86 12.61 C1.51 12.02, 0.97 10.95, 0.46 9.68 C-0.06 8.42, -0.55 6.44, -0.25 5.03 C0.05 3.63, 1.06 2.08, 2.26 1.25 C3.46 0.41, 6.11 0.17, 6.93 0.02 C7.74 -0.13, 7.05 0.22, 7.16 0.36" stroke="#0a11d3" stroke-width="1" fill="none"></path></g><g stroke-linecap="round" transform="translate(164.91323061484252 1017.6353776684366) rotate(0 6.423028523489904 6.97095218120802)"><path d="M6 0.47 C7.38 0.44, 9.31 0.89, 10.36 1.7 C11.41 2.51, 12.07 3.93, 12.28 5.34 C12.49 6.74, 12.2 8.78, 11.63 10.15 C11.05 11.52, 10.02 12.93, 8.83 13.53 C7.64 14.14, 5.9 14.2, 4.51 13.79 C3.12 13.38, 1.31 12.42, 0.51 11.06 C-0.3 9.69, -0.56 7.21, -0.34 5.61 C-0.12 4.01, 0.64 2.46, 1.82 1.46 C3.01 0.45, 5.9 -0.17, 6.79 -0.44 C7.67 -0.7, 7.15 -0.36, 7.12 -0.14 M4.71 0.31 C5.83 0.11, 7.53 0.52, 8.81 1.13 C10.09 1.74, 11.7 2.74, 12.39 3.97 C13.08 5.21, 13.42 6.96, 12.97 8.57 C12.52 10.17, 11 12.62, 9.69 13.61 C8.38 14.6, 6.38 14.89, 5.12 14.48 C3.86 14.07, 2.95 12.48, 2.13 11.15 C1.31 9.82, 0.38 7.95, 0.21 6.51 C0.04 5.07, 0.18 3.55, 1.11 2.51 C2.04 1.47, 5.17 0.75, 5.78 0.29 C6.4 -0.18, 4.77 -0.37, 4.81 -0.28" stroke="none" stroke-width="0" fill="#fff"></path><path d="M5.79 0.35 C7.05 -0.07, 8.75 0.19, 9.89 0.91 C11.04 1.64, 12.19 3.34, 12.67 4.71 C13.16 6.08, 13.33 7.76, 12.79 9.16 C12.26 10.56, 10.73 12.28, 9.45 13.1 C8.17 13.92, 6.41 14.37, 5.09 14.09 C3.77 13.81, 2.42 12.68, 1.55 11.44 C0.68 10.2, -0.07 8.19, -0.12 6.63 C-0.18 5.07, 0.27 3.13, 1.2 2.07 C2.13 1.01, 4.75 0.52, 5.45 0.27 C6.15 0.02, 5.3 0.52, 5.38 0.56 M5.87 0.71 C7.22 0.48, 8.82 0.19, 9.99 0.86 C11.17 1.54, 12.43 3.39, 12.94 4.76 C13.45 6.13, 13.74 7.78, 13.05 9.09 C12.35 10.39, 10.11 11.81, 8.77 12.59 C7.42 13.38, 6.32 14, 4.99 13.8 C3.66 13.59, 1.74 12.51, 0.79 11.35 C-0.16 10.18, -0.78 8.33, -0.68 6.81 C-0.59 5.29, 0.34 3.32, 1.38 2.22 C2.41 1.13, 4.75 0.54, 5.53 0.23 C6.3 -0.09, 6.02 0.13, 6.02 0.32" stroke="#0a11d3" stroke-width="1" fill="none"></path></g><g transform="translate(43.50994760427409 1053.0055459324783) rotate(0 96.1767578125 34.5)"><text x="96.1767578125" y="0" font-family="Helvetica, Segoe UI Emoji" font-size="20px" fill="#1e1e1e" text-anchor="middle" style="white-space: pre;" direction="ltr" dominant-baseline="text-before-edge">Google CloudStorage</text><text x="96.1767578125" y="23" font-family="Helvetica, Segoe UI Emoji" font-size="20px" fill="#1e1e1e" text-anchor="middle" style="white-space: pre;" direction="ltr" dominant-baseline="text-before-edge">(Bucket)</text><text x="96.1767578125" y="46" font-family="Helvetica, Segoe UI Emoji" font-size="20px" fill="#1e1e1e" text-anchor="middle" style="white-space: pre;" direction="ltr" dominant-baseline="text-before-edge">[managed]</text></g><g stroke-linecap="round" transform="translate(10 673.6611837320106) rotate(0 134.306640625 90.09375)"><path d="M32 0 C98.04 1, 166.68 -0.87, 236.61 0 M32 0 C85.88 -1.33, 139.67 -2.27, 236.61 0 M236.61 0 C256.99 -1.08, 268.7 10.96, 268.61 32 M236.61 0 C259.6 0.97, 269.98 10.93, 268.61 32 M268.61 32 C269.03 66.48, 269.71 102.06, 268.61 148.19 M268.61 32 C268.83 77.72, 267.75 121.33, 268.61 148.19 M268.61 148.19 C269.91 170.29, 257.86 181.61, 236.61 180.19 M268.61 148.19 C269.17 168.96, 255.69 180.52, 236.61 180.19 M236.61 180.19 C161.12 180.26, 87.72 181.06, 32 180.19 M236.61 180.19 C166.43 180.57, 98.12 181.66, 32 180.19 M32 180.19 C10.29 180.26, -1.1 171.06, 0 148.19 M32 180.19 C11.55 179.32, -2.14 168.4, 0 148.19 M0 148.19 C0.25 110.75, 0.19 69.99, 0 32 M0 148.19 C-0.06 112.29, 0.9 74.56, 0 32 M0 32 C0.33 8.7, 9.7 0.72, 32 0 M0 32 C-1.25 10.61, 10.44 1.37, 32 0" stroke="#1e1e1e" stroke-width="2" fill="none"></path></g><g transform="translate(41.4697265625 740.7549337320106) rotate(0 102.8369140625 23)"><text x="102.8369140625" y="0" font-family="Helvetica, Segoe UI Emoji" font-size="20px" fill="#1e1e1e" text-anchor="middle" style="white-space: pre;" direction="ltr" dominant-baseline="text-before-edge">NodeJS CloudFunction</text><text x="102.8369140625" y="23" font-family="Helvetica, Segoe UI Emoji" font-size="20px" fill="#1e1e1e" text-anchor="middle" style="white-space: pre;" direction="ltr" dominant-baseline="text-before-edge">[20 - managed]</text></g><g mask="url(#mask-4hY-oNFBIXw8M76b8yLgb)" stroke-linecap="round"><g transform="translate(249.8285180699031 856.4616335770739) rotate(0 106.05324637448246 63.73479835498364)"><path d="M0.37 0.42 C35.73 21.64, 177.47 106.89, 212.66 128.12 M-0.9 -0.4 C34.31 20.4, 176.79 105.33, 212 126.34" stroke="#1e1e1e" stroke-width="2" fill="none"></path></g><g transform="translate(249.8285180699031 856.4616335770739) rotate(0 106.05324637448246 63.73479835498364)"><path d="M29.81 6.16 C20.43 5.21, 10.76 1.27, 0.37 0.42 M29.81 6.16 C20.4 3.94, 10.99 3.07, 0.37 0.42" stroke="#1e1e1e" stroke-width="2" fill="none"></path></g><g transform="translate(249.8285180699031 856.4616335770739) rotate(0 106.05324637448246 63.73479835498364)"><path d="M19.24 23.74 C13.35 16.76, 7.29 6.82, 0.37 0.42 M19.24 23.74 C13.34 15.7, 7.4 9.04, 0.37 0.42" stroke="#1e1e1e" stroke-width="2" fill="none"></path></g></g><mask id="mask-4hY-oNFBIXw8M76b8yLgb"><rect x="0" y="0" fill="#fff" width="561.935010818868" height="1083.9312302870412"></rect><rect x="313.08391288188557" y="908.6964319320575" fill="#000" width="85.595703125" height="23" opacity="1"></rect></mask><g transform="translate(313.08391288188557 908.6964319320576) rotate(0 42.62357562859076 11.626394267561807)"><text x="42.7978515625" y="0" font-family="Helvetica, Segoe UI Emoji" font-size="20px" fill="#1e1e1e" text-anchor="middle" style="white-space: pre;" direction="ltr" dominant-baseline="text-before-edge">subscribe</text></g><g stroke-linecap="round"><g transform="translate(143.58499437213172 859.6768079984082) rotate(0 -2.642016459213167 32.29998022304471)"><path d="M-0.67 0.53 C-1.68 11.06, -4.6 53.42, -5.49 64.15 M1.18 -0.24 C-0.05 10.38, -5.77 54.34, -6.55 65.45" stroke="#1e1e1e" stroke-width="2" fill="none"></path></g><g transform="translate(143.58499437213172 859.6768079984082) rotate(0 -2.642016459213167 32.29998022304471)"><path d="M-13.83 36.35 C-10.2 46.11, -9.32 55.34, -6.55 65.45 M-13.83 36.35 C-11.79 46.52, -10 55.88, -6.55 65.45" stroke="#1e1e1e" stroke-width="2" fill="none"></path></g><g transform="translate(143.58499437213172 859.6768079984082) rotate(0 -2.642016459213167 32.29998022304471)"><path d="M6.58 38.47 C3.14 47.38, -3.04 55.88, -6.55 65.45 M6.58 38.47 C1.94 47.79, -2.97 56.45, -6.55 65.45" stroke="#1e1e1e" stroke-width="2" fill="none"></path></g></g><mask></mask><g stroke-linecap="round" transform="translate(1182.9295067988342 630.2450781306437) rotate(0 134.306640625 90.09375)"><path d="M32 0 C108.95 1.38, 185.51 2.61, 236.61 0 M32 0 C99.3 -1.45, 165.17 -0.26, 236.61 0 M236.61 0 C256.71 -1.75, 270.21 8.88, 268.61 32 M236.61 0 C256.81 0.96, 270.73 9.23, 268.61 32 M268.61 32 C268.23 64.4, 266.02 99.35, 268.61 148.19 M268.61 32 C268.91 74.56, 269.03 114.93, 268.61 148.19 M268.61 148.19 C270.25 171.48, 256.41 179.83, 236.61 180.19 M268.61 148.19 C269.99 167.8, 258.25 181.41, 236.61 180.19 M236.61 180.19 C155.83 178.21, 75.98 179.55, 32 180.19 M236.61 180.19 C162.4 181.24, 86.56 180.34, 32 180.19 M32 180.19 C10.95 179.09, -1.67 171.22, 0 148.19 M32 180.19 C10.83 178.05, -1.45 171.43, 0 148.19 M0 148.19 C-1.51 112.99, -1.88 79.17, 0 32 M0 148.19 C1.56 120.77, -0.02 93.82, 0 32 M0 32 C0.47 10.19, 10.49 -0.54, 32 0 M0 32 C0.37 8.91, 11.35 2.21, 32 0" stroke="#1971c2" stroke-width="2" fill="none"></path></g><g transform="translate(1267.7537255488342 708.8388281306436) rotate(0 49.482421875 11.5)"><text x="49.482421875" y="0" font-family="Helvetica, Segoe UI Emoji" font-size="20px" fill="#1971c2" text-anchor="middle" style="white-space: pre;" direction="ltr" dominant-baseline="text-before-edge">Chargebee</text></g><g transform="translate(1184.7217786703613 10) rotate(0 108.923828125 16.099999999999998)"><text x="0" y="0" font-family="Helvetica, Segoe UI Emoji" font-size="28px" fill="#1971c2" text-anchor="start" style="white-space: pre;" direction="ltr" dominant-baseline="text-before-edge">External Systems</text></g><g stroke-linecap="round" transform="translate(1182.2733899718269 434.4344812535952) rotate(0 134.306640625 90.09375)"><path d="M32 0 C105.13 1.51, 175.14 -0.43, 236.61 0 M32 0 C94.68 -0.98, 156.93 -0.46, 236.61 0 M236.61 0 C256.91 -0.93, 266.64 10.72, 268.61 32 M236.61 0 C260.22 -0.91, 270.01 12.43, 268.61 32 M268.61 32 C267.59 68.29, 265.89 106.61, 268.61 148.19 M268.61 32 C268.73 77.85, 269.08 123.26, 268.61 148.19 M268.61 148.19 C269.78 170.62, 258.69 182.02, 236.61 180.19 M268.61 148.19 C268.1 170.85, 255.79 179.44, 236.61 180.19 M236.61 180.19 C187.12 181.1, 137.34 181.03, 32 180.19 M236.61 180.19 C180.56 180.02, 122.47 181.01, 32 180.19 M32 180.19 C9.67 180.8, -1.28 169.78, 0 148.19 M32 180.19 C11.02 179.15, 1.14 168.5, 0 148.19 M0 148.19 C-2.51 103.71, -0.37 61.85, 0 32 M0 148.19 C-1.34 114.04, -1.52 81.56, 0 32 M0 32 C-0.59 10.9, 11.74 -0.06, 32 0 M0 32 C1.98 11.15, 10.51 2.08, 32 0" stroke="#1971c2" stroke-width="2" fill="none"></path></g><g transform="translate(1290.4569837218269 513.0282312535952) rotate(0 26.123046875 11.5)"><text x="26.123046875" y="0" font-family="Helvetica, Segoe UI Emoji" font-size="20px" fill="#1971c2" text-anchor="middle" style="white-space: pre;" direction="ltr" dominant-baseline="text-before-edge">Braze</text></g><g stroke-linecap="round" transform="translate(1183.6963975867784 831.9093402898093) rotate(0 134.306640625 90.09375)"><path d="M32 0 C91.96 1.97, 152.37 0.01, 236.61 0 M32 0 C82.52 1.61, 132.24 1.29, 236.61 0 M236.61 0 C258.63 -1.09, 267.88 11.53, 268.61 32 M236.61 0 C257.63 -1.9, 267.48 10.2, 268.61 32 M268.61 32 C269.93 56.33, 268.21 84.76, 268.61 148.19 M268.61 32 C268.91 77.9, 269.56 123.3, 268.61 148.19 M268.61 148.19 C268.49 169.8, 258.62 180.91, 236.61 180.19 M268.61 148.19 C268.81 168.72, 255.67 182.09, 236.61 180.19 M236.61 180.19 C178.95 182.85, 124.35 181.64, 32 180.19 M236.61 180.19 C184.67 181.42, 132.08 182.13, 32 180.19 M32 180.19 C11.22 178.49, -1.87 168.13, 0 148.19 M32 180.19 C9.75 179.88, -1.64 168.63, 0 148.19 M0 148.19 C1.09 112.19, -0.8 76.71, 0 32 M0 148.19 C-0.02 117.64, 1.07 85.35, 0 32 M0 32 C-1.76 12.16, 11.71 -1.51, 32 0 M0 32 C-1.2 12.04, 11.07 -0.37, 32 0" stroke="#1971c2" stroke-width="2" fill="none"></path></g><g transform="translate(1271.3184678992784 910.5030902898093) rotate(0 46.6845703125 11.5)"><text x="46.6845703125" y="0" font-family="Helvetica, Segoe UI Emoji" font-size="20px" fill="#1971c2" text-anchor="middle" style="white-space: pre;" direction="ltr" dominant-baseline="text-before-edge">Fastspring</text></g><g stroke-linecap="round"><g transform="translate(785.3848394798177 222.578913875155) rotate(0 196.06088684490817 207.1786270716474)"><path d="M-0.12 -0.79 C65.26 68.1, 325.88 345.03, 391.35 414.09 M-1.65 1.41 C64.21 70.42, 328 346.64, 393.66 415.49" stroke="#1e1e1e" stroke-width="2" fill="none"></path></g><g transform="translate(785.3848394798177 222.578913875155) rotate(0 196.06088684490817 207.1786270716474)"><path d="M366.78 402.18 C371.43 403.84, 378.19 409.08, 393.66 415.49 M366.78 402.18 C372.32 404.62, 378.65 408.06, 393.66 415.49" stroke="#1e1e1e" stroke-width="2" fill="none"></path></g><g transform="translate(785.3848394798177 222.578913875155) rotate(0 196.06088684490817 207.1786270716474)"><path d="M381.62 388.01 C383.11 392.76, 386.62 401.11, 393.66 415.49 M381.62 388.01 C383.61 393.69, 386.46 400.46, 393.66 415.49" stroke="#1e1e1e" stroke-width="2" fill="none"></path></g></g><mask></mask><g stroke-linecap="round" transform="translate(1176.9998911634798 1219.6742650122412) rotate(0 134.306640625 90.09375)"><path d="M32 0 C91.25 -1.94, 150.19 -1.51, 236.61 0 M32 0 C104.02 -0.45, 176.19 -0.69, 236.61 0 M236.61 0 C256.97 0.4, 268.31 10.44, 268.61 32 M236.61 0 C256.98 0.53, 270.85 9.39, 268.61 32 M268.61 32 C270.97 79, 268.1 125.83, 268.61 148.19 M268.61 32 C269.6 63.33, 269.47 95.84, 268.61 148.19 M268.61 148.19 C270.4 168.47, 257.06 179.18, 236.61 180.19 M268.61 148.19 C269.94 170.03, 257.35 182.26, 236.61 180.19 M236.61 180.19 C192.48 177.54, 150.44 179.92, 32 180.19 M236.61 180.19 C193.73 182.4, 148.58 182.07, 32 180.19 M32 180.19 C12.34 181.05, 1.66 168.54, 0 148.19 M32 180.19 C12.64 180.54, -1.31 171.62, 0 148.19 M0 148.19 C-0.17 114.74, 1.55 79.06, 0 32 M0 148.19 C-1.38 125.38, -1.15 100.23, 0 32 M0 32 C1.26 10.08, 12.29 -0.22, 32 0 M0 32 C-0.39 9.25, 8.69 -1.51, 32 0" stroke="#1971c2" stroke-width="2" fill="none"></path></g><g transform="translate(1265.7205942884798 1298.2680150122412) rotate(0 45.5859375 11.5)"><text x="45.5859375" y="0" font-family="Helvetica, Segoe UI Emoji" font-size="20px" fill="#1971c2" text-anchor="middle" style="white-space: pre;" direction="ltr" dominant-baseline="text-before-edge">Contentful</text></g><g stroke-linecap="round" transform="translate(1178.6833184726702 240.21719357121432) rotate(0 134.306640625 90.09375)"><path d="M32 0 C81.52 -0.3, 132.12 0.08, 236.61 0 M32 0 C81.85 -1.67, 130.55 -1.43, 236.61 0 M236.61 0 C259.12 -1.56, 270.56 12.63, 268.61 32 M236.61 0 C256.24 1.89, 267.56 10.05, 268.61 32 M268.61 32 C270.3 71.05, 269.67 106.69, 268.61 148.19 M268.61 32 C267.19 59.93, 266.85 88.22, 268.61 148.19 M268.61 148.19 C268.45 168.18, 258.43 180.05, 236.61 180.19 M268.61 148.19 C269.24 167.95, 260.07 181.02, 236.61 180.19 M236.61 180.19 C189.84 179.75, 143.79 179.32, 32 180.19 M236.61 180.19 C191.27 179.51, 145.99 179.45, 32 180.19 M32 180.19 C8.93 178.5, 0.85 168.21, 0 148.19 M32 180.19 C12.08 179.88, 1.69 171.1, 0 148.19 M0 148.19 C1.31 104.39, 2.06 58.66, 0 32 M0 148.19 C-1 123.51, -0.65 98.5, 0 32 M0 32 C-0.45 10.8, 10.45 -0.33, 32 0 M0 32 C1.4 12.31, 9.11 0.01, 32 0" stroke="#1971c2" stroke-width="2" fill="none"></path></g><g transform="translate(1255.1823419101702 318.81094357121435) rotate(0 57.8076171875 11.5)"><text x="57.8076171875" y="0" font-family="Helvetica, Segoe UI Emoji" font-size="20px" fill="#1971c2" text-anchor="middle" style="white-space: pre;" direction="ltr" dominant-baseline="text-before-edge">RudderStack</text></g><g stroke-linecap="round"><g transform="translate(639.033091109529 759.1809423346297) rotate(0 270.4551531709583 -27.606313692790593)"><path d="M0.49 0.99 C90.71 -8.11, 450.35 -44.89, 540.33 -54.16 M-0.71 0.47 C89.99 -8.99, 452.73 -46.21, 542.73 -55.73" stroke="#1e1e1e" stroke-width="2" fill="none"></path></g><g transform="translate(639.033091109529 759.1809423346297) rotate(0 270.4551531709583 -27.606313692790593)"><path d="M27.5 -12.08 C23.26 -10.06, 17.41 -7.1, 0.49 0.99 M27.5 -12.08 C18.01 -7.26, 9.33 -3.41, 0.49 0.99" stroke="#1e1e1e" stroke-width="2" fill="none"></path></g><g transform="translate(639.033091109529 759.1809423346297) rotate(0 270.4551531709583 -27.606313692790593)"><path d="M29.58 8.34 C24.81 5.87, 18.5 4.34, 0.49 0.99 M29.58 8.34 C19.47 6.07, 10.08 2.8, 0.49 0.99" stroke="#1e1e1e" stroke-width="2" fill="none"></path></g><g transform="translate(639.033091109529 759.1809423346297) rotate(0 270.4551531709583 -27.606313692790593)"><path d="M515.75 -42.61 C523.29 -46.58, 529.32 -49.39, 542.73 -55.73 M515.75 -42.61 C525.2 -47.38, 535.33 -52.66, 542.73 -55.73" stroke="#1e1e1e" stroke-width="2" fill="none"></path></g><g transform="translate(639.033091109529 759.1809423346297) rotate(0 270.4551531709583 -27.606313692790593)"><path d="M513.63 -63.02 C521.72 -62.51, 528.22 -60.82, 542.73 -55.73 M513.63 -63.02 C523.71 -60.7, 534.57 -58.87, 542.73 -55.73" stroke="#1e1e1e" stroke-width="2" fill="none"></path></g></g><mask></mask><g stroke-linecap="round"><g transform="translate(1176.967172374424 859.2051805470954) rotate(0 -268.9158867639363 -33.040941040563666)"><path d="M-0.04 0 C-89.64 -10.91, -447.55 -54.25, -537.26 -65.16 M-1.51 -1.05 C-91.25 -12.31, -448.28 -55.72, -537.91 -66.8" stroke="#1e1e1e" stroke-width="2" fill="none"></path></g><g transform="translate(1176.967172374424 859.2051805470954) rotate(0 -268.9158867639363 -33.040941040563666)"><path d="M-508.68 -73.55 C-518.28 -70.38, -526.36 -69.84, -537.91 -66.8 M-508.68 -73.55 C-519.68 -70.13, -528.89 -69.45, -537.91 -66.8" stroke="#1e1e1e" stroke-width="2" fill="none"></path></g><g transform="translate(1176.967172374424 859.2051805470954) rotate(0 -268.9158867639363 -33.040941040563666)"><path d="M-511.17 -53.18 C-520.01 -56.72, -527.26 -62.88, -537.91 -66.8 M-511.17 -53.18 C-521.32 -56.93, -529.65 -63.42, -537.91 -66.8" stroke="#1e1e1e" stroke-width="2" fill="none"></path></g></g><mask></mask><g stroke-linecap="round"><g transform="translate(647.1526051477778 725.342504557737) rotate(0 260.7460751697041 -99.51416887010618)"><path d="M-0.44 1.05 C86.22 -32.28, 433.98 -165.91, 521.11 -199.41 M1.53 0.56 C87.9 -32.65, 433.21 -164.8, 519.96 -198.07" stroke="#1e1e1e" stroke-width="2" fill="none"></path></g><g transform="translate(647.1526051477778 725.342504557737) rotate(0 260.7460751697041 -99.51416887010618)"><path d="M497.3 -178.4 C507.94 -186.76, 514.53 -192.51, 519.96 -198.07 M497.3 -178.4 C502.7 -183.57, 506.64 -186.7, 519.96 -198.07" stroke="#1e1e1e" stroke-width="2" fill="none"></path></g><g transform="translate(647.1526051477778 725.342504557737) rotate(0 260.7460751697041 -99.51416887010618)"><path d="M489.96 -197.56 C503.6 -198.3, 513.11 -196.46, 519.96 -198.07 M489.96 -197.56 C497.15 -198.41, 502.74 -197.21, 519.96 -198.07" stroke="#1e1e1e" stroke-width="2" fill="none"></path></g></g><mask></mask><g stroke-linecap="round" transform="translate(1182.8035300636716 1021.8948079408005) rotate(0 134.306640625 90.09374999999994)"><path d="M32 0 C100.82 0.93, 171.52 2.53, 236.61 0 M32 0 C83.13 0.71, 136.47 0.67, 236.61 0 M236.61 0 C259.64 0.38, 270.12 12.29, 268.61 32 M236.61 0 C256.19 2, 270.19 12.94, 268.61 32 M268.61 32 C269.16 73.92, 266.46 116.74, 268.61 148.19 M268.61 32 C268.42 55.13, 268.05 80.58, 268.61 148.19 M268.61 148.19 C268.79 170.64, 259.03 180.17, 236.61 180.19 M268.61 148.19 C267.09 170.06, 259.47 180.96, 236.61 180.19 M236.61 180.19 C158.51 180.84, 81.63 180.27, 32 180.19 M236.61 180.19 C164.22 179.56, 91.15 178.63, 32 180.19 M32 180.19 C10.75 181.92, 0.02 168.43, 0 148.19 M32 180.19 C8.72 179.99, -0.65 169.34, 0 148.19 M0 148.19 C-1.61 113.61, -0.75 82.44, 0 32 M0 148.19 C-1.15 108.26, -1.57 70.91, 0 32 M0 32 C-0.46 9.6, 11.24 -1.84, 32 0 M0 32 C-0.1 12.29, 11.52 -0.28, 32 0" stroke="#1971c2" stroke-width="2" fill="none"></path></g><g transform="translate(1284.3123191261716 1100.4885579408003) rotate(0 32.7978515625 11.5)"><text x="32.7978515625" y="0" font-family="Helvetica, Segoe UI Emoji" font-size="20px" fill="#1971c2" text-anchor="middle" style="white-space: pre;" direction="ltr" dominant-baseline="text-before-edge">Mondia</text></g><g stroke-linecap="round"><g transform="translate(1179.7573833841316 1026.2373821005729) rotate(0 -269.75295006684865 -104.98607650337203)"><path d="M-1.04 -0.45 C-91 -35.66, -450.11 -175.97, -539.82 -210.77 M0.61 -1.73 C-89.52 -36.85, -450.84 -174.74, -540.94 -209.65" stroke="#1e1e1e" stroke-width="2" fill="none"></path></g><g transform="translate(1179.7573833841316 1026.2373821005729) rotate(0 -269.75295006684865 -104.98607650337203)"><path d="M-31.03 -1.15 C-23.04 -1.22, -14.87 -0.2, -1.04 -0.45 M-31.03 -1.15 C-20.42 -1.04, -9.22 -1.61, -1.04 -0.45" stroke="#1e1e1e" stroke-width="2" fill="none"></path></g><g transform="translate(1179.7573833841316 1026.2373821005729) rotate(0 -269.75295006684865 -104.98607650337203)"><path d="M-23.57 -20.26 C-17.67 -14.82, -11.68 -8.23, -1.04 -0.45 M-23.57 -20.26 C-15.85 -13.16, -7.35 -6.8, -1.04 -0.45" stroke="#1e1e1e" stroke-width="2" fill="none"></path></g><g transform="translate(1179.7573833841316 1026.2373821005729) rotate(0 -269.75295006684865 -104.98607650337203)"><path d="M-510.94 -209.12 C-520.44 -210.07, -529.77 -209.4, -540.94 -209.65 M-510.94 -209.12 C-522.05 -208.88, -532.57 -209.9, -540.94 -209.65" stroke="#1e1e1e" stroke-width="2" fill="none"></path></g><g transform="translate(1179.7573833841316 1026.2373821005729) rotate(0 -269.75295006684865 -104.98607650337203)"><path d="M-518.3 -189.96 C-525.73 -196.43, -532.91 -201.35, -540.94 -209.65 M-518.3 -189.96 C-526.55 -196.73, -534.41 -204.69, -540.94 -209.65" stroke="#1e1e1e" stroke-width="2" fill="none"></path></g></g><mask></mask><g stroke-linecap="round"><g transform="translate(642.5766590918573 851.903729216216) rotate(0 266.6558158460732 190.202145918018)"><path d="M0.07 -0.57 C88.82 62.95, 444.92 316.6, 533.65 380.11 M-1.36 1.74 C87.17 65.52, 443.51 318.15, 532.89 381.49" stroke="#1e1e1e" stroke-width="2" fill="none"></path></g><g transform="translate(642.5766590918573 851.903729216216) rotate(0 266.6558158460732 190.202145918018)"><path d="M503.95 373.56 C514.39 377.25, 526.3 378.42, 532.89 381.49 M503.95 373.56 C512.72 375.05, 521.78 377.81, 532.89 381.49" stroke="#1e1e1e" stroke-width="2" fill="none"></path></g><g transform="translate(642.5766590918573 851.903729216216) rotate(0 266.6558158460732 190.202145918018)"><path d="M515.82 356.82 C521.42 367.14, 528.64 374.93, 532.89 381.49 M515.82 356.82 C520.88 363.43, 526.3 371.31, 532.89 381.49" stroke="#1e1e1e" stroke-width="2" fill="none"></path></g></g><mask></mask><g stroke-linecap="round"><g transform="translate(636.2707822099181 696.2179751553534) rotate(0 265.6612029730302 -189.31288882341406)"><path d="M0.11 -0.27 C88.76 -63.59, 443.92 -316.46, 532.46 -379.34 M-1.29 -1.45 C87.25 -64.69, 443.45 -315.2, 532.11 -378.17" stroke="#1e1e1e" stroke-width="2" fill="none"></path></g><g transform="translate(636.2707822099181 696.2179751553534) rotate(0 265.6612029730302 -189.31288882341406)"><path d="M17.12 -24.98 C10.9 -14.49, 4.26 -7.73, 0.11 -0.27 M17.12 -24.98 C9.74 -15.51, 3.71 -6.52, 0.11 -0.27" stroke="#1e1e1e" stroke-width="2" fill="none"></path></g><g transform="translate(636.2707822099181 696.2179751553534) rotate(0 265.6612029730302 -189.31288882341406)"><path d="M29.02 -8.27 C18.59 -3.57, 7.82 -2.6, 0.11 -0.27 M29.02 -8.27 C17.06 -5.43, 6.37 -2.99, 0.11 -0.27" stroke="#1e1e1e" stroke-width="2" fill="none"></path></g><g transform="translate(636.2707822099181 696.2179751553534) rotate(0 265.6612029730302 -189.31288882341406)"><path d="M515 -353.52 C520.36 -360.2, 525.56 -370.56, 532.11 -378.17 M515 -353.52 C521.26 -363.21, 528.61 -373.57, 532.11 -378.17" stroke="#1e1e1e" stroke-width="2" fill="none"></path></g><g transform="translate(636.2707822099181 696.2179751553534) rotate(0 265.6612029730302 -189.31288882341406)"><path d="M503.16 -370.29 C512.72 -371.15, 522.03 -375.7, 532.11 -378.17 M503.16 -370.29 C513.98 -373.32, 525.97 -377.1, 532.11 -378.17" stroke="#1e1e1e" stroke-width="2" fill="none"></path></g></g><mask></mask><g stroke-linecap="round"><g transform="translate(791.6483326371688 161.57488969528166) rotate(0 190.68767075510078 61.019063679687775)"><path d="M-0.75 0.15 C62.64 20.43, 317.17 101.13, 380.77 121.6 M1.06 -0.81 C64.8 19.64, 320.04 102.58, 383.16 122.91" stroke="#1e1e1e" stroke-width="2" fill="none"></path></g><g transform="translate(791.6483326371688 161.57488969528166) rotate(0 190.68767075510078 61.019063679687775)"><path d="M353.18 123.99 C363.58 122.81, 372.75 122.58, 383.16 122.91 M353.18 123.99 C365.08 123.99, 375.22 122.57, 383.16 122.91" stroke="#1e1e1e" stroke-width="2" fill="none"></path></g><g transform="translate(791.6483326371688 161.57488969528166) rotate(0 190.68767075510078 61.019063679687775)"><path d="M359.5 104.47 C367.75 109.85, 374.78 116.22, 383.16 122.91 M359.5 104.47 C368.96 111.93, 376.69 117.96, 383.16 122.91" stroke="#1e1e1e" stroke-width="2" fill="none"></path></g></g><mask></mask><g stroke-linecap="round"><g transform="translate(792.0017593650653 197.24498171450333) rotate(0 192.68267162704154 150.2787358424474)"><path d="M0.55 -1.1 C64.51 49.05, 320.44 249.37, 384.68 299.67 M-0.62 0.94 C63.65 51.32, 322.67 250.55, 387.03 300.74" stroke="#1e1e1e" stroke-width="2" fill="none"></path></g><g transform="translate(792.0017593650653 197.24498171450333) rotate(0 192.68267162704154 150.2787358424474)"><path d="M29.08 8.21 C16.57 3.68, 6.15 2.35, 0.55 -1.1 M29.08 8.21 C19.8 5.13, 12.27 2.33, 0.55 -1.1" stroke="#1e1e1e" stroke-width="2" fill="none"></path></g><g transform="translate(792.0017593650653 197.24498171450333) rotate(0 192.68267162704154 150.2787358424474)"><path d="M16.42 24.36 C8.86 13.68, 3.21 6.25, 0.55 -1.1 M16.42 24.36 C11.16 16.16, 7.56 8.34, 0.55 -1.1" stroke="#1e1e1e" stroke-width="2" fill="none"></path></g><g transform="translate(792.0017593650653 197.24498171450333) rotate(0 192.68267162704154 150.2787358424474)"><path d="M358.46 291.6 C367.33 293.78, 378.46 299.4, 387.03 300.74 M358.46 291.6 C366.82 293.74, 377.02 296.67, 387.03 300.74" stroke="#1e1e1e" stroke-width="2" fill="none"></path></g><g transform="translate(792.0017593650653 197.24498171450333) rotate(0 192.68267162704154 150.2787358424474)"><path d="M371.02 275.37 C374.99 283.73, 381.38 295.49, 387.03 300.74 M371.02 275.37 C375.39 282.66, 381.7 290.63, 387.03 300.74" stroke="#1e1e1e" stroke-width="2" fill="none"></path></g></g><mask></mask><g stroke-linecap="round" transform="translate(1174.656113915325 52.488599721304325) rotate(0 134.306640625 90.09375)"><path d="M32 0 C97.03 -0.93, 160.75 1.46, 236.61 0 M32 0 C76.11 0.99, 119.44 -0.12, 236.61 0 M236.61 0 C259.65 1.27, 268.78 11.28, 268.61 32 M236.61 0 C258.83 2.23, 270.74 10.27, 268.61 32 M268.61 32 C269.94 56.56, 267.82 80.35, 268.61 148.19 M268.61 32 C268.14 69.47, 268.28 104.98, 268.61 148.19 M268.61 148.19 C266.67 170.04, 256.63 180.25, 236.61 180.19 M268.61 148.19 C270.46 170.26, 259.57 179.97, 236.61 180.19 M236.61 180.19 C166.59 180.27, 95.57 181.74, 32 180.19 M236.61 180.19 C164.22 178.94, 90.55 179.39, 32 180.19 M32 180.19 C9 178.43, 1.52 168.72, 0 148.19 M32 180.19 C9.32 179.09, -0.38 170.58, 0 148.19 M0 148.19 C1.8 115.53, -0.61 85.52, 0 32 M0 148.19 C0.5 119.8, 0.12 89.59, 0 32 M0 32 C-0.44 10.57, 11.69 -1.66, 32 0 M0 32 C-1.99 11.96, 10.81 1.64, 32 0" stroke="#1971c2" stroke-width="2" fill="none"></path></g><g transform="translate(1264.494981102825 131.08234972130433) rotate(0 44.4677734375 11.5)"><text x="44.4677734375" y="0" font-family="Helvetica, Segoe UI Emoji" font-size="20px" fill="#1971c2" text-anchor="middle" style="white-space: pre;" direction="ltr" dominant-baseline="text-before-edge">Amplitude</text></g><g stroke-linecap="round"><g transform="translate(784.8216163667512 126.12940546739523) rotate(0 192.29204208568257 12.216473870836467)"><path d="M-0.95 -0.37 C63.11 3.69, 320.98 20.83, 385.21 24.92 M0.75 -1.6 C64.63 2.03, 320.79 18.55, 384.58 23.06" stroke="#1e1e1e" stroke-width="2" fill="none"></path></g><g transform="translate(784.8216163667512 126.12940546739523) rotate(0 192.29204208568257 12.216473870836467)"><path d="M355.77 31.41 C365.79 29.58, 377.89 25.12, 384.58 23.06 M355.77 31.41 C364.81 28.38, 371.54 27.4, 384.58 23.06" stroke="#1e1e1e" stroke-width="2" fill="none"></path></g><g transform="translate(784.8216163667512 126.12940546739523) rotate(0 192.29204208568257 12.216473870836467)"><path d="M357.14 10.94 C366.76 16.68, 378.35 19.8, 384.58 23.06 M357.14 10.94 C365.68 13.67, 372.03 18.48, 384.58 23.06" stroke="#1e1e1e" stroke-width="2" fill="none"></path></g></g><mask></mask><g stroke-linecap="round"><g transform="translate(1453.3933771061565 149.90200327010402) rotate(0 15.862349590187932 90.05406033831304)"><path d="M-1.12 0.23 C3.88 14.76, 30.42 57.36, 30.57 87.32 C30.73 117.27, 4.87 164.4, -0.19 179.97 M0.5 -0.69 C5.8 14.03, 32.98 58.56, 32.68 88.88 C32.38 119.2, 4.08 166.27, -1.32 181.22" stroke="#1e1e1e" stroke-width="2" fill="none"></path></g><g transform="translate(1453.3933771061565 149.90200327010402) rotate(0 15.862349590187932 90.05406033831304)"><path d="M19.72 21.82 C12.84 12.21, 5.3 5.47, -1.12 0.23 M19.72 21.82 C13.41 16.06, 7.03 8.72, -1.12 0.23" stroke="#1e1e1e" stroke-width="2" fill="none"></path></g><g transform="translate(1453.3933771061565 149.90200327010402) rotate(0 15.862349590187932 90.05406033831304)"><path d="M0.97 30.16 C0.59 17.83, -0.44 8.2, -1.12 0.23 M0.97 30.16 C0.09 21.89, -0.88 12.15, -1.12 0.23" stroke="#1e1e1e" stroke-width="2" fill="none"></path></g></g><mask></mask><g stroke-linecap="round"><g transform="translate(1450.3892499190383 345.4957950506074) rotate(0 13.825495553101064 90.14241702028716)"><path d="M-0.65 -0.62 C3.7 16.28, 24.96 70.63, 26.55 100.89 C28.14 131.16, 11.62 167.86, 8.87 180.98 M1.21 1.67 C5.88 18.72, 27.57 72.27, 28.68 101.83 C29.79 131.38, 10.88 165.91, 7.87 179" stroke="#1e1e1e" stroke-width="2" fill="none"></path></g><g transform="translate(1450.3892499190383 345.4957950506074) rotate(0 13.825495553101064 90.14241702028716)"><path d="M7.71 149 C6.61 157.24, 5.78 168.41, 7.87 179 M7.71 149 C7.93 160.68, 7.1 170.95, 7.87 179" stroke="#1e1e1e" stroke-width="2" fill="none"></path></g><g transform="translate(1450.3892499190383 345.4957950506074) rotate(0 13.825495553101064 90.14241702028716)"><path d="M27.03 155.91 C19.47 161.73, 12.15 170.58, 7.87 179 M27.03 155.91 C20.3 165.02, 12.56 172.81, 7.87 179" stroke="#1e1e1e" stroke-width="2" fill="none"></path></g></g><mask></mask><g stroke-linecap="round"><g transform="translate(1458.9086942020122 720.5187561620414) rotate(0 38.13288379933738 -186.89298378189852)"><path d="M0.94 0.25 C14.49 -34.06, 81.42 -144.24, 80.53 -206.44 C79.65 -268.65, 10.01 -345.16, -4.37 -372.99 M-0.03 -0.67 C13.39 -34.71, 80.18 -142.5, 79.36 -204.88 C78.54 -267.25, 9.27 -347.03, -4.96 -374.92" stroke="#1e1e1e" stroke-width="2" fill="none"></path></g><g transform="translate(1458.9086942020122 720.5187561620414) rotate(0 38.13288379933738 -186.89298378189852)"><path d="M19.05 -356.93 C13.88 -361.73, 7.87 -364.69, -4.96 -374.92 M19.05 -356.93 C10.21 -363.29, 2.33 -369.83, -4.96 -374.92" stroke="#1e1e1e" stroke-width="2" fill="none"></path></g><g transform="translate(1458.9086942020122 720.5187561620414) rotate(0 38.13288379933738 -186.89298378189852)"><path d="M1.87 -345.71 C0.82 -353.29, -1.13 -358.91, -4.96 -374.92 M1.87 -345.71 C-0.59 -356.22, -2.17 -366.87, -4.96 -374.92" stroke="#1e1e1e" stroke-width="2" fill="none"></path></g></g><mask></mask></svg>