<svg version="1.1" xmlns="http://www.w3.org/2000/svg" viewBox="0 0 103.72961688444161 215.2689557559213"
  width="311.18885065332483" height="645.8068672677639">
  <!-- svg-source:excalidraw -->

  <defs>
    <style>
      @font-face {
        font-family: "Virgil";
        src: url("https://excalidraw.com/Virgil.woff2");
      }

      @font-face {
        font-family: "Cascadia";
        src: url("https://excalidraw.com/Cascadia.woff2");
      }
    </style>
  </defs>
  <rect x="0" y="0" width="103.72961688444161" height="215.2689557559213" fill="#ffffff"></rect>
  <g stroke-linecap="round"
    transform="translate(23.02649188444161 10.000000000000057) rotate(0 35.3515625 32.53773834745763)">
    <path
      d="M46.64 1.46 C53.07 3.02, 60.38 7.93, 64.31 13.15 C68.25 18.37, 70.41 26.36, 70.25 32.79 C70.08 39.22, 67.41 46.54, 63.31 51.71 C59.21 56.89, 52.1 61.96, 45.64 63.85 C39.18 65.74, 31.17 64.97, 24.55 63.05 C17.93 61.12, 10.02 57.43, 5.93 52.3 C1.85 47.16, -0.13 38.8, 0.02 32.23 C0.16 25.66, 2.79 18.02, 6.78 12.88 C10.78 7.75, 16.92 3.24, 24 1.44 C31.08 -0.37, 44.53 1.59, 49.27 2.06 C54.01 2.53, 52.6 3.71, 52.44 4.24 M19.07 2.25 C25.16 -1.06, 35.56 -2.28, 42.5 -1 C49.44 0.27, 56.07 5.13, 60.7 9.89 C65.33 14.65, 69.22 21.41, 70.27 27.56 C71.33 33.7, 70.21 41.18, 67.01 46.76 C63.82 52.33, 57.46 58.15, 51.09 61 C44.72 63.85, 35.47 65.03, 28.8 63.86 C22.12 62.69, 15.76 58.47, 11.05 53.99 C6.34 49.5, 1.6 42.98, 0.53 36.95 C-0.53 30.92, 1.67 23.48, 4.67 17.82 C7.68 12.16, 16.01 5.36, 18.55 2.99 C21.08 0.61, 19.66 3.2, 19.9 3.59"
      stroke="#000000" stroke-width="2" fill="none"></path>
  </g>
  <g stroke-linecap="round">
    <g transform="translate(54.51483934206885 74.84866217878886) rotate(0 -1.5571761555161174 39.56555979170787)">
      <path d="M-0.36 0.79 C-1.12 13.8, -3.16 64.98, -3.69 77.94 M1.65 0.15 C0.64 13.31, -3.76 65.72, -4.76 78.98"
        stroke="#000000" stroke-width="2" fill="none"></path>
    </g>
  </g>
  <g stroke-linecap="round">
    <g transform="translate(51.217699511559886 155.7610032804805) rotate(0 16.11462166092747 24.059991243046284)">
      <path d="M0.79 -0.22 C5.86 7.84, 25.26 39.95, 30.28 48.02 M-0.26 -1.39 C5.2 6.9, 27.45 41.01, 32.49 49.51"
        stroke="#000000" stroke-width="2" fill="none"></path>
    </g>
  </g>
  <g stroke-linecap="round">
    <g transform="translate(46.62289018952765 152.23875751777086) rotate(0 -14.018250747775767 22.395331023373956)">
      <path d="M-0.22 -0.95 C-4.63 6.31, -22.42 36.89, -26.81 44.37 M-1.8 1.16 C-6.34 8.54, -23.56 38.45, -27.81 45.74"
        stroke="#000000" stroke-width="2" fill="none"></path>
    </g>
  </g>
  <g stroke-linecap="round">
    <g transform="translate(10.951678926870272 119.34487761069977) rotate(0 20.007990795176397 -13.215007176551183)">
      <path d="M-0.95 -0.09 C5.75 -4.45, 34.05 -21.85, 40.97 -26.34 M0.75 -1.19 C7.19 -5.31, 32.8 -20.61, 39.85 -24.74"
        stroke="#000000" stroke-width="2" fill="none"></path>
    </g>
  </g>
  <g stroke-linecap="round">
    <g transform="translate(51.268147858422935 91.56702052803303) rotate(0 14.022941079005022 17.039735192260736)">
      <path d="M-0.09 -0.32 C4.89 5.58, 24.8 28.58, 29.65 34.46 M-1.6 -1.54 C3.25 4.59, 23.83 29.33, 28.76 35.62"
        stroke="#000000" stroke-width="2" fill="none"></path>
    </g>
  </g>
</svg>