<svg version="1.1" xmlns="http://www.w3.org/2000/svg" viewBox="0 0 121.45032245684433 278.994810698302"
  width="121.45032245684433" height="278.994810698302">
  <!-- svg-source:excalidraw -->

  <defs>
    <style>
      @font-face {
        font-family: "Virgil";
        src: url("https://excalidraw.com/Virgil.woff2");
      }

      @font-face {
        font-family: "Cascadia";
        src: url("https://excalidraw.com/Cascadia.woff2");
      }
    </style>
  </defs>
  <rect x="0" y="0" width="121.45032245684433" height="278.994810698302" fill="#ffffff"></rect>
  <g stroke-linecap="round"
    transform="translate(21.631727629233183 74.08793675293339) rotate(0 35.3515625 32.53773834745763)">
    <path
      d="M26.39 1.88 C32.61 0.11, 42.51 0.22, 48.87 2.34 C55.22 4.46, 60.9 9.28, 64.53 14.58 C68.17 19.87, 70.86 27.76, 70.67 34.09 C70.48 40.42, 67.7 47.45, 63.42 52.55 C59.13 57.65, 51.9 63.09, 44.95 64.69 C38 66.29, 28.18 64.75, 21.71 62.17 C15.23 59.6, 9.6 54.67, 6.11 49.23 C2.62 43.79, 0.38 35.66, 0.77 29.53 C1.16 23.41, 3.92 17.22, 8.46 12.48 C13 7.74, 24.7 2.9, 28.02 1.09 C31.35 -0.71, 28.32 1.31, 28.41 1.64 M26.35 1.84 C32.6 -0.26, 40.81 -0.21, 47.43 1.95 C54.04 4.11, 62.19 9.51, 66.03 14.78 C69.86 20.05, 70.82 26.98, 70.43 33.56 C70.04 40.14, 68.15 49.43, 63.7 54.26 C59.24 59.09, 50.71 60.89, 43.69 62.53 C36.67 64.17, 27.64 66.27, 21.58 64.09 C15.52 61.9, 11.07 55.05, 7.33 49.41 C3.59 43.76, -0.98 36.32, -0.84 30.23 C-0.71 24.13, 3.66 17.57, 8.16 12.83 C12.66 8.09, 23.14 3.57, 26.14 1.79 C29.15 0.01, 25.85 1.89, 26.21 2.14"
      stroke="#000000" stroke-width="2" fill="none"></path>
  </g>
  <g stroke-linecap="round">
    <g transform="translate(53.120075086860425 138.93659893172037) rotate(0 -1.3389834756527534 39.143692695926404)">
      <path d="M-1.04 -0.6 C-1.62 12.58, -2.27 64.45, -2.73 77.88 M0.61 1.71 C-0.12 15.1, -2.4 66.14, -3.29 78.88"
        stroke="#000000" stroke-width="2" fill="none"></path>
    </g>
  </g>
  <g stroke-linecap="round">
    <g transform="translate(49.82293525635146 219.8489400334139) rotate(0 15.899521957146248 24.613246751569704)">
      <path d="M-0.6 0.74 C4.64 8.88, 24.73 39.81, 30.22 47.78 M1.29 0.08 C7 8.48, 27.26 41.41, 32.4 49.15"
        stroke="#000000" stroke-width="2" fill="none"></path>
    </g>
  </g>
  <g stroke-linecap="round">
    <g transform="translate(45.228125934317404 216.32669427070152) rotate(0 -13.717785807937503 22.371381307841602)">
      <path d="M0.74 -1.01 C-3.6 6.71, -22.56 38.13, -27.05 45.76 M-0.33 1.07 C-4.76 8.53, -23.77 36.69, -28.17 44.19"
        stroke="#000000" stroke-width="2" fill="none"></path>
    </g>
  </g>
  <g stroke-linecap="round">
    <g transform="translate(22.909534832622057 153.91938494866838) rotate(0 15.19116414682469 14.026666465353344)">
      <path d="M-1.01 -0.33 C4.32 4.48, 26.17 24.84, 31.4 29.6 M0.65 -1.55 C5.97 2.83, 26.18 22.63, 31.01 27.74"
        stroke="#000000" stroke-width="2" fill="none"></path>
    </g>
  </g>
  <g stroke-linecap="round">
    <g transform="translate(55.232098391944646 182.54756291477054) rotate(0 21.935723110496724 -11.785501220083574)">
      <path d="M-0.33 1.06 C6.91 -2.88, 37.01 -20.22, 44.2 -24.63 M1.7 0.57 C8.76 -3.07, 36.24 -18.91, 43.51 -23.08"
        stroke="#000000" stroke-width="2" fill="none"></path>
    </g>
  </g>
  <g stroke-linecap="round">
    <g transform="translate(9.842069260589824 79.79339183426157) rotate(0 50.88309196783234 10.287990798689407)">
      <path d="M1.06 0.49 C18.16 3.84, 84.98 16.43, 101.61 19.8 M0.16 -0.31 C17.19 3.21, 83.47 17.15, 100.67 20.88"
        stroke="#000000" stroke-width="2" fill="none"></path>
    </g>
  </g>
  <g stroke-linecap="round"
    transform="translate(42.62848869269624 14.235952200127997) rotate(10.74366233694554 26.18366933021275 36.80112358758396)">
    <path d="M-0.57 0.55 L50.84 0.68 L52.73 72.13 L0.02 74.14" stroke="none" stroke-width="0" fill="#fff"></path>
    <path
      d="M0.04 -1.45 C13.05 -0.13, 27.37 1.57, 50.76 1.81 M0.66 -0.67 C19.61 -0.56, 38.12 1.06, 52.43 0.37 M50.59 -1.08 C52.09 15.3, 53.32 30.69, 51.94 73.45 M52.1 0.46 C53.43 27.18, 51.55 54.91, 53.08 74.58 M52.99 74.34 C40.72 74.11, 28.61 73.74, 1.89 72.27 M51.5 72.93 C39.93 73.37, 25.18 73.99, 0.99 73.11 M-1.75 72.74 C-2.17 54.82, 0.56 34.09, -0.97 0.64 M0.72 72.76 C-0.48 53.59, -1.04 35.59, -0.88 -0.44"
      stroke="#000000" stroke-width="2" fill="none"></path>
  </g>
  <g stroke-linecap="round">
    <g transform="translate(56.82205990867806 119.69959957107847) rotate(0 0.6970663472476417 6.971092813704786)"
      fill-rule="evenodd">
      <path
        d="M-0.65 0.39 L30 11.19 L35.56 8.59 L45.43 3.49 L40.1 12.9 L39.09 18.22 L31.5 16.06 L-2.09 11.9 L-18.68 12.87 L-27.58 12.83 L-35.81 5.95 L-41.02 -2.07 L-31.49 4.76 L-24.5 4.78 L-0.99 -0.99"
        stroke="none" stroke-width="0" fill="#000" fill-rule="evenodd"></path>
      <path
        d="M0.02 -0.87 C4.01 0.67, 19.1 7.95, 24.97 9.73 C30.85 11.52, 32.3 10.72, 35.29 9.82 C38.27 8.91, 42.28 3.34, 42.89 4.31 C43.49 5.28, 41.97 13.38, 38.91 15.63 C35.86 17.88, 31.22 18.54, 24.55 17.82 C17.89 17.1, 7.61 11.87, -1.06 11.29 C-9.72 10.71, -20.88 16.68, -27.44 14.33 C-34 11.98, -40.66 -1.24, -40.41 -2.81 C-40.16 -4.37, -32.78 4.5, -25.94 4.94 C-19.1 5.38, -3.54 0.78, 0.61 -0.15 M-1.42 1.29 C2.86 3, 20.76 10.17, 27.3 11.3 C33.84 12.42, 35.26 9.53, 37.81 8.04 C40.37 6.54, 42.62 1.05, 42.63 2.33 C42.63 3.6, 40.67 13.21, 37.83 15.68 C34.99 18.16, 32.04 18.08, 25.6 17.2 C19.16 16.31, 7.66 10.89, -0.83 10.38 C-9.33 9.88, -18.56 16.59, -25.35 14.17 C-32.15 11.75, -41.68 -3.04, -41.61 -4.15 C-41.54 -5.25, -32.08 6.72, -24.94 7.53 C-17.79 8.35, -3.01 2.24, 1.25 0.75"
        stroke="#000000" stroke-width="1" fill="none"></path>
    </g>
  </g>
  <g stroke-linecap="round"
    transform="translate(29.301893758430424 94.12813822597138) rotate(0 11.5814208984375 9.222412109375)">
    <path
      d="M11.03 0.91 C13.58 0.59, 17.92 0.49, 19.83 1.75 C21.73 3.01, 22.28 6.32, 22.45 8.48 C22.61 10.63, 22.15 13.07, 20.82 14.7 C19.49 16.32, 16.56 17.7, 14.44 18.23 C12.33 18.76, 10.25 18.81, 8.14 17.88 C6.04 16.96, 3.04 14.45, 1.8 12.69 C0.57 10.92, 0.46 9.16, 0.73 7.3 C1 5.43, 1.53 2.67, 3.44 1.49 C5.36 0.31, 10.53 0.36, 12.21 0.23 C13.88 0.1, 13.49 0.61, 13.5 0.72 M15.64 1.4 C18.09 1.88, 22.35 2.49, 23.33 3.9 C24.31 5.31, 22.12 7.52, 21.52 9.87 C20.91 12.23, 21.6 16.75, 19.68 18.03 C17.75 19.31, 12.76 17.82, 9.96 17.56 C7.15 17.3, 4.4 17.62, 2.85 16.47 C1.3 15.31, 0.72 12.64, 0.65 10.62 C0.58 8.6, 1.14 5.81, 2.45 4.34 C3.75 2.88, 6.37 2.56, 8.47 1.83 C10.57 1.1, 13.93 0.28, 15.05 -0.03 C16.18 -0.34, 15.34 -0.11, 15.21 -0.01"
      stroke="#000000" stroke-width="1" fill="none"></path>
  </g>
  <g stroke-linecap="round"
    transform="translate(39.812635945930424 101.40279642909547) rotate(0 0.604248046875 0.79345703125)">
    <path
      d="M1.33 0.65 C1.21 0.63, 0.23 -0.37, 0.31 -0.52 C0.39 -0.66, 1.54 -0.33, 1.8 -0.23 C2.07 -0.12, 1.98 -0.29, 1.88 0.11 C1.79 0.51, 1.45 1.88, 1.24 2.19 C1.04 2.49, 0.97 2.01, 0.63 1.96 C0.3 1.91, -0.66 2.21, -0.79 1.88 C-0.91 1.55, -0.18 0.31, -0.12 0 C-0.07 -0.31, -0.58 -0.02, -0.44 0.03 C-0.3 0.08, 0.45 0.34, 0.69 0.3 C0.93 0.27, 1.05 -0.29, 1.01 -0.2 M1.33 1.46 C1.31 1.3, 0.18 -1.2, -0.07 -1.14 C-0.32 -1.09, -0.61 1.57, -0.17 1.78 C0.27 2, 2.56 0.34, 2.58 0.15 C2.59 -0.03, 0.19 0.36, -0.11 0.68 C-0.4 1, 0.76 1.89, 0.83 2.07 C0.89 2.25, 0.41 1.95, 0.29 1.76 C0.17 1.57, -0.11 1.37, 0.12 0.94 C0.35 0.51, 1.7 -0.56, 1.66 -0.85 C1.63 -1.13, 0.22 -0.67, -0.1 -0.74 C-0.42 -0.82, -0.21 -1.59, -0.25 -1.29"
      stroke="#000000" stroke-width="1" fill="none"></path>
  </g>
  <g stroke-linecap="round"
    transform="translate(71.60584883655542 104.14327494472047) rotate(0 0.6103515625 1.03759765625)">
    <path
      d="M1.49 -0.43 C1.64 -0.4, 0.74 0.86, 0.59 1.27 C0.43 1.67, 0.62 1.86, 0.53 2.01 C0.45 2.16, -0.04 2.15, 0.09 2.17 C0.22 2.19, 1.23 2.37, 1.31 2.14 C1.38 1.9, 0.68 0.98, 0.55 0.79 C0.42 0.6, 0.73 1.14, 0.51 0.99 C0.29 0.84, -0.71 0.02, -0.77 -0.11 C-0.84 -0.23, -0.2 0.11, 0.13 0.23 C0.46 0.34, 1.11 0.6, 1.21 0.58 C1.31 0.56, 0.66 0.16, 0.74 0.12 M2.02 -1.09 C1.98 -1.46, -0.44 -1.74, -0.4 -1.18 C-0.36 -0.63, 2.2 1.95, 2.28 2.24 C2.36 2.54, 0.46 0.57, 0.08 0.6 C-0.3 0.64, -0.17 2.17, -0.01 2.45 C0.14 2.72, 0.88 2.38, 1 2.26 C1.12 2.14, 0.83 1.71, 0.72 1.73 C0.61 1.74, 0.59 2.72, 0.34 2.36 C0.08 1.99, -0.73 0.1, -0.82 -0.45 C-0.9 -0.99, -0.2 -0.8, -0.18 -0.89 C-0.17 -0.98, -1.03 -1.17, -0.74 -0.98"
      stroke="#000000" stroke-width="1" fill="none"></path>
  </g>
</svg>