<svg version="1.1" xmlns="http://www.w3.org/2000/svg" viewBox="0 0 106.89940650869335 214.2758310848178" width="320.69821952608004" height="642.8274932544534">
  <!-- svg-source:excalidraw -->
  
  <defs>
    <style>
      @font-face {
        font-family: "Virgil";
        src: url("https://excalidraw.com/Virgil.woff2");
      }
      @font-face {
        font-family: "Cascadia";
        src: url("https://excalidraw.com/Cascadia.woff2");
      }
    </style>
  </defs>
  <rect x="0" y="0" width="106.89940650869335" height="214.2758310848178" fill="#ffffff"></rect><g stroke-linecap="round" transform="translate(23.68500666445732 10.000000000000057) rotate(0 35.3515625 32.53773834745763)"><path d="M41.83 0.15 C48.3 0.94, 56.13 5.14, 61.05 9.77 C65.97 14.41, 70.67 21.48, 71.35 27.97 C72.04 34.46, 68.8 42.91, 65.17 48.71 C61.54 54.51, 55.86 60.26, 49.57 62.78 C43.28 65.29, 34.21 65.02, 27.42 63.81 C20.64 62.59, 13.45 59.95, 8.87 55.49 C4.28 51.02, 0.81 43.45, -0.06 37.04 C-0.93 30.62, 0.22 22.55, 3.63 16.98 C7.04 11.42, 13.67 6.18, 20.38 3.65 C27.1 1.12, 39.65 2.12, 43.92 1.78 C48.2 1.44, 46.34 1.37, 46.03 1.6 M49.34 1.99 C55.19 4.13, 61.32 11.65, 65.01 17.34 C68.7 23.02, 72.19 29.83, 71.46 36.1 C70.73 42.36, 65.61 50.44, 60.61 54.93 C55.61 59.42, 48.3 61.76, 41.45 63.04 C34.6 64.32, 25.61 64.95, 19.52 62.59 C13.43 60.23, 8.36 54.68, 4.93 48.86 C1.5 43.04, -1.64 34.12, -1.05 27.65 C-0.45 21.18, 3.46 14.61, 8.49 10.05 C13.51 5.48, 21.99 1.66, 29.13 0.27 C36.26 -1.13, 48.1 1.36, 51.29 1.68 C54.47 2, 48.89 1.55, 48.24 2.2" stroke="#000000" stroke-width="2" fill="none"></path></g><g stroke-linecap="round"><g transform="translate(55.17335412208456 74.84866217878886) rotate(0 -1.8482238537475837 39.31211846312459)"><path d="M-0.98 0.48 C-1.69 13.65, -2.92 64.94, -3.46 77.91 M0.7 -0.31 C-0.23 13.08, -4 65.67, -4.4 78.93" stroke="#000000" stroke-width="2" fill="none"></path></g></g><g stroke-linecap="round"><g transform="translate(51.87621429157559 155.7610032804805) rotate(0 15.861180332344304 23.743619199285774)"><path d="M0.48 0.01 C5.71 8.07, 25.22 39.43, 30.25 47.37 M-0.72 -1.03 C4.97 7.26, 27.4 40.23, 32.44 48.51" stroke="#000000" stroke-width="2" fill="none"></path></g></g><g stroke-linecap="round"><g transform="translate(47.28140496954336 152.23875751777086) rotate(0 -13.727146868748719 22.158815248521364)"><path d="M0.01 -0.98 C-4.4 6.28, -22.93 36.64, -27.47 44.09 M-1.44 1.11 C-5.38 8.49, -20.68 38.07, -25.15 45.3" stroke="#000000" stroke-width="2" fill="none"></path></g></g><g stroke-linecap="round"><g transform="translate(9.930451148635598 92.13304816704135) rotate(67.20427607194914 21.04278900774466 -12.722256112097)"><path d="M-0.98 -0.74 C5.72 -5.23, 33.8 -22.81, 40.68 -26.92 M0.7 1.48 C7.76 -2.85, 36.07 -20.86, 43.07 -25.64" stroke="#000000" stroke-width="2" fill="none"></path></g></g><g stroke-linecap="round"><g transform="translate(60.99727245299141 65.69898513097536) rotate(279.1978083835904 14.158087620265235 17.313232654221338)"><path d="M-0.74 -0.61 C4.1 5.25, 23.84 28.43, 29.06 34.22 M1.07 1.68 C5.71 7.75, 22.98 29.72, 27.86 35.24" stroke="#000000" stroke-width="2" fill="none"></path></g></g><g stroke-linecap="round"><g transform="translate(12.067594157014923 64.22524029283215) rotate(0 9.742506837853 -26.539932420358213)"><path d="M0 0 C3.25 -8.85, 16.24 -44.23, 19.49 -53.08 M0 0 C3.25 -8.85, 16.24 -44.23, 19.49 -53.08" stroke="#000000" stroke-width="2" fill="none"></path></g></g><g stroke-linecap="round"><g transform="translate(95.71877355789081 72.28800457243466) rotate(0 0.16556634067984533 -27.884172694742574)"><path d="M-0.85 0.17 C-0.71 -9.31, 1.14 -46.67, 1.18 -55.94 M0.91 -0.78 C0.93 -10.13, 0.53 -44.87, 0.68 -54.32" stroke="#000000" stroke-width="1" fill="none"></path></g></g></svg>